<?xml version="1.0" encoding="utf-8"?>
<svg xmlns="http://www.w3.org/2000/svg" xmlns:xlink="http://www.w3.org/1999/xlink" version="1.1" x="0px" y="0px" width="651.969px" height="340.158px" viewBox="0 0 651.969 340.158" xml:lang="mul">
<title>Latitude and Longitude of the Earth</title>

<desc>Illustration of geographic latitude and longitude of the earth.</desc>

<metadata>
<rdf:RDF xmlns:rdf="http://www.w3.org/1999/02/22-rdf-syntax-ns#" xmlns:dc="http://purl.org/dc/elements/1.1/">
	<rdf:Description rdf:about="">
		<dc:title xml:lang="ja">地球の緯度及び経度</dc:title>
		<dc:title xml:lang="x-default">Latitude and Longitude of the Earth</dc:title>
		<dc:creator rdf:resource="https://meta.wikimedia.org/?curid=10484470"/>
		<dc:subject rdf:resource="https://www.wikidata.org/wiki/Q2"/>
		<dc:subject rdf:resource="https://www.wikidata.org/wiki/Q34027"/>
		<dc:subject rdf:resource="https://www.wikidata.org/wiki/Q36477"/>
		<dc:description xml:lang="ja" rdf:parseType="Resource">
			<dc:format rdf:datatype="http://purl.org/dc/terms/IMT">text/x-wiki</dc:format>
			<rdf:value><![CDATA[
[[w:ja:地球|地球]]の[[w:ja:緯度|緯度]]及び[[w:ja:経度|経度]]を示す図像。
]]><!--  --></rdf:value>
		</dc:description>
		<dc:description xml:lang="x-default" rdf:parseType="Resource">
			<dc:format rdf:datatype="http://purl.org/dc/terms/IMT">text/x-wiki</dc:format>
			<rdf:value><![CDATA[
Illustration of geographic [[w:latitude|]] and [[w:longitude|]] of the [[w:earth|]].
]]><!--  --></rdf:value>
		</dc:description>
		<dc:contributor rdf:resource="https://commons.wikimedia.org/?curid=13862827"/>
		<dc:contributor rdf:resource="https://meta.wikimedia.org/?curid=7936822"/>
		<dc:date rdf:datatype="http://www.w3.org/2001/XMLSchemadate">2011-05-30</dc:date>
		<dc:type rdf:datatype="http://purl.org/dc/terms/DCMIType">StillImage</dc:type>
		<dc:format rdf:datatype="http://purl.org/dc/terms/IMT">image/svg+xml</dc:format>
		<dc:language rdf:datatype="http://purl.org/dc/terms/ISO639-2">mul</dc:language>
		<dc:rights rdf:resource="https://creativecommons.org/publicdomain/zero/1.0/deed"/>
	</rdf:Description>
</rdf:RDF>
</metadata>

<g font-family="'Liberation Sans', Dyuthi, 'VL PGothic', sans-serif">
<path fill-rule="evenodd" clip-rule="evenodd" fill="#00AEEF" d="M162.1,41.566c69.218,0,125.351,55.633,125.351,124.233  c0,68.6-56.133,124.234-125.351,124.234c-69.217,0-125.35-55.634-125.35-124.234C36.75,97.199,92.883,41.566,162.1,41.566z"/>
<path fill="none" stroke="#000000" stroke-width="0.5669" stroke-miterlimit="22.9256" d="M162.1,41.566  c69.218,0,125.351,55.633,125.351,124.233c0,68.6-56.133,124.234-125.351,124.234c-69.217,0-125.35-55.634-125.35-124.234  C36.75,97.199,92.883,41.566,162.1,41.566z"/>
<path fill-rule="evenodd" clip-rule="evenodd" fill="#FFF200" d="M181.928,145.782c6.577-1.561,6.142-4.189,10.443-6.9  c5.167-3.257,0.255,9.172,6.843,5.084c4.705-2.92,13.896-4.477,21.247,1.453c8.219,6.631,25.168,22.105,31.69,24.696  c34.876,13.854-12.544,50.396-17.285,62.829c-5.054,13.248-32.364,22.105-42.855,32.686c-3.934,3.967-7.707,13.438-8.643,13.438  c-22.722,0,28.005-58.963,7.202-70.819c-14.559-8.298-17.646-19.605-17.646-34.864c0-5.652,6.842-10.747,6.842-15.254  C179.767,155.724,180.595,138.115,181.928,145.782z"/>
<path fill="none" stroke="#000000" stroke-width="0.5669" stroke-miterlimit="22.9256" d="M181.928,145.782  c6.577-1.561,6.142-4.189,10.443-6.9c5.167-3.257,0.255,9.172,6.843,5.084c4.705-2.92,13.896-4.477,21.247,1.453  c8.219,6.631,25.168,22.105,31.69,24.696c34.876,13.854-12.544,50.396-17.285,62.829c-5.054,13.248-32.364,22.105-42.855,32.686  c-3.934,3.967-7.707,13.438-8.643,13.438c-22.722,0,28.005-58.963,7.202-70.819c-14.559-8.298-17.646-19.605-17.646-34.864  c0-5.652,6.842-10.747,6.842-15.254C179.767,155.724,180.595,138.115,181.928,145.782z"/>
<path fill-rule="evenodd" clip-rule="evenodd" fill="#FFF200" d="M177.247,145.418c-6.57-4.587-12.604,0.239-12.604-9.442  c0-5.634-2.625-7.99-8.283-7.99c-1.73,0-5.1-23.672-10.804-8.716c-3.719,9.751-13.348-3.398-12.244-14.164  c2.067-20.173,24.869-2.645,35.652-9.442c6.559-4.134,18.12-26.875,23.408-26.875c11.479,0,8.227,1.006,17.646-3.995  c0.684-0.363-8.969-3.43-11.524-7.989c-4.466-7.969,5.021-4.28-7.203-11.985c-11.891-7.496-55.253-1.435-66.622,3.269  c-6.04,2.499-20.806,5.109-25.208,8.716c-2.42,1.982,12.198,8.637,4.321,14.163c-19.556,13.72,8.637,43.298,18.727,52.298  c2.6,2.319,25.872,7.523,29.89,7.99c3.234,0.376,8.959,9.398,11.164,11.622C165.568,144.899,176.021,152.395,177.247,145.418z"/>
<path fill="none" stroke="#000000" stroke-width="0.5669" stroke-miterlimit="22.9256" d="M177.247,145.418  c-6.57-4.587-12.604,0.239-12.604-9.442c0-5.634-2.625-7.99-8.283-7.99c-1.73,0-5.1-23.672-10.804-8.716  c-3.719,9.751-13.348-3.398-12.244-14.164c2.067-20.173,24.869-2.645,35.652-9.442c6.559-4.134,18.12-26.875,23.408-26.875  c11.479,0,8.227,1.006,17.646-3.995c0.684-0.363-8.969-3.43-11.524-7.989c-4.466-7.969,5.021-4.28-7.203-11.985  c-11.891-7.496-55.253-1.435-66.622,3.269c-6.04,2.499-20.806,5.109-25.208,8.716c-2.42,1.982,12.198,8.637,4.321,14.163  c-19.556,13.72,8.637,43.298,18.727,52.298c2.6,2.319,25.872,7.523,29.89,7.99c3.234,0.376,8.959,9.398,11.164,11.622  C165.568,144.899,176.021,152.395,177.247,145.418z"/>
<path fill-rule="evenodd" clip-rule="evenodd" fill="#FFF200" d="M161.042,113.459c3.959,0,7.501-0.363,11.524-0.363  c3.577,0,5.439,3.581,9.002,3.995c3.164,0.367,5.11,2.886,7.563,3.995c3.14,1.419,15.617,0.476,10.443-1.09  c-6.374-1.928-14.062-3.096-20.167-6.173c-3.326-1.677-6.858-3.09-11.524-3.632c-1.882-0.219-4.375-0.126-6.122,0.364  C158.438,111.485,158.624,110.141,161.042,113.459z"/>
<path fill="none" stroke="#000000" stroke-width="0.5669" stroke-miterlimit="22.9256" d="M161.042,113.459  c3.959,0,7.501-0.363,11.524-0.363c3.577,0,5.439,3.581,9.002,3.995c3.164,0.367,5.11,2.886,7.563,3.995  c3.14,1.419,15.617,0.476,10.443-1.09c-6.374-1.928-14.062-3.096-20.167-6.173c-3.326-1.677-6.858-3.09-11.524-3.632  c-1.882-0.219-4.375-0.126-6.122,0.364C158.438,111.485,158.624,110.141,161.042,113.459z"/>
<path fill-rule="evenodd" clip-rule="evenodd" fill="#FFF200" d="M165.362,97.843c1.348,2.174,1.9,2.829,2.521,5.084  c0.283,1.026-0.021,1.406,1.081,2.179c0.403,0.283,1.359,0.727,2.16,0.727c1.194,0,1.081,0.115,1.081-1.09v-1.815  c0-1.011-0.987-2.182-1.081-2.905c-0.043-0.333,0-0.75,0-1.09c0-1.583-0.824-2.905-2.521-2.905h-2.161  C164.926,96.027,165.362,96.486,165.362,97.843z"/>
<path fill="none" stroke="#000000" stroke-width="0.5669" stroke-miterlimit="22.9256" d="M165.362,97.843  c1.348,2.174,1.9,2.829,2.521,5.084c0.283,1.026-0.021,1.406,1.081,2.179c0.403,0.283,1.359,0.727,2.16,0.727  c1.194,0,1.081,0.115,1.081-1.09v-1.815c0-1.011-0.987-2.182-1.081-2.905c-0.043-0.333,0-0.75,0-1.09  c0-1.583-0.824-2.905-2.521-2.905h-2.161C164.926,96.027,165.362,96.486,165.362,97.843z"/>
<path fill-rule="evenodd" clip-rule="evenodd" fill="#FFF200" d="M101.261,99.659c-0.725,1.585-1.8,3.494-1.8,5.447  c0,1.014-0.194,2.815,0.36,3.269c0.952,0.78,2.161,0.975,2.161,2.18c0,0.785,0.038,0.401,0.36,0.727  c0.509,0.513,0.215,1.191,1.08,1.452c1.343,0.406,3.003,0.278,3.241-1.816c0.1-0.869-0.641-2.835-1.08-3.632  c-0.804-1.46-0.887-3.758-1.081-5.448C104.297,100.047,102.225,99.377,101.261,99.659z"/>
<path fill="none" stroke="#000000" stroke-width="0.5669" stroke-miterlimit="22.9256" d="M101.261,99.659  c-0.725,1.585-1.8,3.494-1.8,5.447c0,1.014-0.194,2.815,0.36,3.269c0.952,0.78,2.161,0.975,2.161,2.18  c0,0.785,0.038,0.401,0.36,0.727c0.509,0.513,0.215,1.191,1.08,1.452c1.343,0.406,3.003,0.278,3.241-1.816  c0.1-0.869-0.641-2.835-1.08-3.632c-0.804-1.46-0.887-3.758-1.081-5.448C104.297,100.047,102.225,99.377,101.261,99.659z"/>
<path fill="none" stroke="#000000" stroke-width="1.0001" stroke-miterlimit="22.9256" d="M161.465,42.785  c65.843,0,119.24,54.757,119.24,122.277s-53.396,122.277-119.24,122.277s-119.24-54.757-119.24-122.277  S95.622,42.785,161.465,42.785z"/>
<path fill="none" stroke="#000000" stroke-width="1.0001" stroke-miterlimit="22.9256" d="M161.465,43.182  c58.319,0,105.612,54.795,105.612,122.363s-47.293,122.362-105.612,122.362c-58.318,0-105.612-54.794-105.612-122.362  S103.147,43.182,161.465,43.182z"/>
<path fill="none" stroke="#000000" stroke-width="1.0001" stroke-miterlimit="22.9256" d="M164.021,43.182  c46.561,0,84.32,54.732,84.32,122.221s-37.759,122.221-84.32,122.221s-84.32-54.731-84.32-122.221S117.46,43.182,164.021,43.182z"/>
<path fill="none" stroke="#000000" stroke-width="1.0001" stroke-miterlimit="22.9256" d="M163.169,42.898  c29.786,0,53.941,54.858,53.941,122.505s-24.155,122.504-53.941,122.504s-53.942-54.857-53.942-122.504  S133.383,42.898,163.169,42.898z"/>
<path fill="none" stroke="#000000" stroke-width="1.0001" stroke-miterlimit="22.9256" d="M164.588,42.614  c11.13,0,20.157,54.859,20.157,122.505c0,67.645-9.027,122.504-20.157,122.504c-11.131,0-20.157-54.859-20.157-122.504  C144.431,97.473,153.458,42.614,164.588,42.614z"/>
<path fill="none" stroke="#000000" stroke-width="1.0001" stroke-miterlimit="22.9256" d="M281.839,195.922  c-85.182,3.785-165.542,3.028-241.082-2.271"/>
<path fill="none" stroke="#000000" stroke-width="1.0001" stroke-miterlimit="22.9256" d="M271.988,223.745  c-62.776,9.843-137.337,10.6-217.271,2.271"/>
<path fill="none" stroke="#000000" stroke-width="1.0001" stroke-miterlimit="22.9256" d="M252.115,250.465  c-59.658,9.842-121.349,10.377-178.66,0.535"/>
<path fill="none" stroke="#000000" stroke-width="1.0001" stroke-miterlimit="22.9256" d="M233.11,266.164  c-37.75,9.274-89.292,11.713-135.39,3.574"/>
<path fill="none" stroke="#000000" stroke-width="1.0001" stroke-miterlimit="22.9256" d="M280.718,128.921  c-126.916-6.772-206.603-6.772-239.06,0"/>
<path fill="none" stroke="#000000" stroke-width="1.0001" stroke-miterlimit="22.9256" d="M264.807,97.691  c-93.922-6.814-163.006-6.814-207.25,0"/>
<path fill="none" stroke="#000000" stroke-width="1.0001" stroke-miterlimit="22.9256" d="M242.662,72.14  c-62.585-9.788-117.284-9.788-164.097,0"/>
<path fill="none" stroke="#000000" stroke-width="1.0001" stroke-miterlimit="22.9256" d="M211.433,51.699  c-46.121-4.084-78.487-4.084-97.095,0"/>
<path fill="none" stroke="#000000" stroke-width="2.9999" stroke-miterlimit="22.9256" stroke-dasharray="6,3" d="M286.383,164.111  c-119.771,0-202.689,0-248.755,0"/>
<path fill="none" stroke="#000000" stroke-width="2.9999" stroke-miterlimit="22.9256" d="M162.033,41.479  c68.979,0,124.917,55.431,124.917,123.782c0,68.351-55.938,123.783-124.917,123.783S37.115,233.612,37.115,165.261  C37.115,96.909,93.054,41.479,162.033,41.479z"/>
<path fill-rule="evenodd" clip-rule="evenodd" fill="#00AEEF" d="M497.564,43.682c68.356,0,123.791,55.256,123.791,123.393  s-55.435,123.393-123.791,123.393c-68.355,0-123.79-55.256-123.79-123.393S429.209,43.682,497.564,43.682z"/>
<path fill="none" stroke="#000000" stroke-width="0.5669" stroke-miterlimit="22.9256" d="M497.564,43.682  c68.356,0,123.791,55.256,123.791,123.393s-55.435,123.393-123.791,123.393c-68.355,0-123.79-55.256-123.79-123.393  S429.209,43.682,497.564,43.682z"/>
<path fill-rule="evenodd" clip-rule="evenodd" fill="#FFF200" d="M530.087,78.24c3.168,0.236,7.344,19.041,7.344,23.355  c0,10.808-6.906,0.508-14.688,0.508c-5.721,0-7.013,11.866-9.966,14.724c-12.51,12.109-10.484,26.395,3.147,13.201  c0.9-0.871,7.868-18.333,7.868-11.678c0,15.408,10.347,17.121-10.491,24.878c-13.661,5.086-13.942,12.074-15.735,25.386  c-0.328,2.434-13.89-1.65-17.834,0.508c-5.146,2.814,5.985,28.259,20.456,8.123c13.625-18.957,35.736,2.98,44.585-5.585  c12.013-11.627,34.129,21.131,41.963,30.464c17.152,20.436,40.887-31.033,16.26-27.925c-15.401,1.943-7.28,4.208,0-6.093  c11.316-16.009,17.834,3.669,17.834-10.155c0-57.186-49.128-106.893-104.836-115.497c-22.786-3.52-46.941-1.109-69.018,11.646  c-0.712,0.411-1.155-1.572-1.863-1.14c-1.394,0.85-3.322,2.141-4.699,2.829c-5.97,2.984-11.108,7.107-15.225,9.729  c-22.227,14.157-25.759,19.085-35.476,39.952c-1.821,3.912-5.632,6.749-7.745,12.08c-0.487,1.229-0.508,3.816-1.154,5.075  c-0.221,0.429-0.447,1.12-0.648,1.55c-11.456,24.442-7.221,47.392-3.241,76.933c1.594,11.834,14.274,29.48,19.962,39.335  c12.718,22.035,39.51,28.12,15.706-0.24c-25.169-29.987-36.192-47.152-36.192-96.467c0-17.001,54.551-19.262,54.551-26.909  c0-22.293,38.128-27.571,3.147-31.986c-4.247-0.536,7.775-5.849,9.966-6.093c27.086-3.024,20.756-8.895,15.211,11.677  c-2.731,10.136-20.252,18.428,1.049,15.74c25.575-3.228,15.022-12.048,25.645-28.499c0.414-0.643-2.439-3.249-10.298-3.44  c-4.116-0.101-9.361,2.175-13.063,0.373c-5.469-2.664-9.044-13.061-9.066-17.395c-0.023-4.6,4.409-8.539,8.348-10.299  c5.485-2.451,9.778-0.491,18.637,0.415c13.819,1.412,32.904,3.598,39.988,8.166C529.339,61.175,526.569,78.24,530.087,78.24z"/>
<path fill="none" stroke="#000000" stroke-width="0.5669" stroke-miterlimit="22.9256" d="M530.087,78.24  c3.168,0.236,7.344,19.041,7.344,23.355c0,10.808-6.906,0.508-14.688,0.508c-5.721,0-7.013,11.866-9.966,14.724  c-12.51,12.109-10.484,26.395,3.147,13.201c0.9-0.871,7.868-18.333,7.868-11.678c0,15.408,10.347,17.121-10.491,24.878  c-13.661,5.086-13.942,12.074-15.735,25.386c-0.328,2.434-13.89-1.65-17.834,0.508c-5.146,2.814,5.985,28.259,20.456,8.123  c13.625-18.957,35.736,2.98,44.585-5.585c12.013-11.627,34.129,21.131,41.963,30.464c17.152,20.436,40.887-31.033,16.26-27.925  c-15.401,1.943-7.28,4.208,0-6.093c11.316-16.009,17.834,3.669,17.834-10.155c0-57.186-49.128-106.893-104.836-115.497  c-22.786-3.52-46.941-1.109-69.018,11.646c-0.712,0.411-1.155-1.572-1.863-1.14c-1.394,0.85-3.322,2.141-4.699,2.829  c-5.97,2.984-11.108,7.107-15.225,9.729c-22.227,14.157-25.759,19.085-35.476,39.952c-1.821,3.912-5.632,6.749-7.745,12.08  c-0.487,1.229-0.508,3.816-1.154,5.075c-0.221,0.429-0.447,1.12-0.648,1.55c-11.456,24.442-7.221,47.392-3.241,76.933  c1.594,11.834,14.274,29.48,19.962,39.335c12.718,22.035,39.51,28.12,15.706-0.24c-25.169-29.987-36.192-47.152-36.192-96.467  c0-17.001,54.551-19.262,54.551-26.909c0-22.293,38.128-27.571,3.147-31.986c-4.247-0.536,7.775-5.849,9.966-6.093  c27.086-3.024,20.756-8.895,15.211,11.677c-2.731,10.136-20.252,18.428,1.049,15.74c25.575-3.228,15.022-12.048,25.645-28.499  c0.414-0.643-2.439-3.249-10.298-3.44c-4.116-0.101-9.361,2.175-13.063,0.373c-5.469-2.664-9.044-13.061-9.066-17.395  c-0.023-4.6,4.409-8.539,8.348-10.299c5.485-2.451,9.778-0.491,18.637,0.415c13.819,1.412,32.904,3.598,39.988,8.166  C529.339,61.175,526.569,78.24,530.087,78.24z"/>
<path fill-rule="evenodd" clip-rule="evenodd" fill="#FFF200" d="M527.464,283.867c0-4.783,6.715-9.58,3.672-12.185  c-17.984-15.399-16.48-18.278-46.683-18.278c-15.802,0-24.129-11.526-24.129-27.417c0-8.249,13.183-27.743,19.933-29.447  c5.091-1.286,28.49-6.792,34.095-9.646c10.043-5.118,3.341,10.661,19.407,10.661c13.471,0,6.46-7.615,21.506-7.615  c21.291,0,14.512,13.487,31.472,19.801c9.687,3.606,15.035-12.839,12.589,9.647c-2.25,20.666-1.804,26.16-21.506,41.633  c-9.333,7.329-19.911,14.402-31.048,18.82C540.524,282.318,534.467,285.06,527.464,283.867z"/>
<path fill="none" stroke="#000000" stroke-width="0.5669" stroke-miterlimit="22.9256" d="M527.464,283.867  c0-4.783,6.715-9.58,3.672-12.185c-17.984-15.399-16.48-18.278-46.683-18.278c-15.802,0-24.129-11.526-24.129-27.417  c0-8.249,13.183-27.743,19.933-29.447c5.091-1.286,28.49-6.792,34.095-9.646c10.043-5.118,3.341,10.661,19.407,10.661  c13.471,0,6.46-7.615,21.506-7.615c21.291,0,14.512,13.487,31.472,19.801c9.687,3.606,15.035-12.839,12.589,9.647  c-2.25,20.666-1.804,26.16-21.506,41.633c-9.333,7.329-19.911,14.402-31.048,18.82C540.524,282.318,534.467,285.06,527.464,283.867z  "/>
<path fill-rule="evenodd" clip-rule="evenodd" fill="#FFF200" d="M475.012,114.288c-1.006,2.108-1.508,2.694-0.525,4.063  c0.588,0.817,1.176,1.645,1.574,2.031c0.706,0.683,1.049,2.646,1.049,4.062c0,1.269,0.077,0.941-0.524,1.523  c-0.316,0.306-2.58,1.715-2.622,2.031c-0.045,0.333-0.092,3.466,0,3.554c0.146,0.142,3.241,0,3.671,0c1.558,0,1.5-0.259,2.623-1.015  c0.542-0.365,1.264-1.731,1.573-2.031c1.27-1.229,0-3.2,0-5.078c0-1.881,0.631-6.029,0-7.616  C481.145,114.085,475.523,114.796,475.012,114.288z"/>
<path fill="none" stroke="#000000" stroke-width="0.5669" stroke-miterlimit="22.9256" d="M475.012,114.288  c-1.006,2.108-1.508,2.694-0.525,4.063c0.588,0.817,1.176,1.645,1.574,2.031c0.706,0.683,1.049,2.646,1.049,4.062  c0,1.269,0.077,0.941-0.524,1.523c-0.316,0.306-2.58,1.715-2.622,2.031c-0.045,0.333-0.092,3.466,0,3.554  c0.146,0.142,3.241,0,3.671,0c1.558,0,1.5-0.259,2.623-1.015c0.542-0.365,1.264-1.731,1.573-2.031c1.27-1.229,0-3.2,0-5.078  c0-1.881,0.631-6.029,0-7.616C481.145,114.085,475.523,114.796,475.012,114.288z"/>
<path fill-rule="evenodd" clip-rule="evenodd" fill="#FFF200" d="M490.747,133.074c-0.695,2.917-0.631,4.968,0,7.616  c0.465,1.949,2.068,2.159,2.623,3.554c1.069,2.691-1.433,3.01-1.574,4.062c-0.149,1.113-0.149,2.949,0,4.062  c0.14,1.037,1.278,1.185,2.623,1.015c0.542-0.068,2.968-10.851,3.147-12.185C497.777,139.625,493.985,131.043,490.747,133.074z"/>
<path fill="none" stroke="#000000" stroke-width="0.5669" stroke-miterlimit="22.9256" d="M490.747,133.074  c-0.695,2.917-0.631,4.968,0,7.616c0.465,1.949,2.068,2.159,2.623,3.554c1.069,2.691-1.433,3.01-1.574,4.062  c-0.149,1.113-0.149,2.949,0,4.062c0.14,1.037,1.278,1.185,2.623,1.015c0.542-0.068,2.968-10.851,3.147-12.185  C497.777,139.625,493.985,131.043,490.747,133.074z"/>
<path fill-rule="evenodd" clip-rule="evenodd" fill="#FFF200" d="M482.354,147.291c0.283-0.823,0.637-1.262,1.05-2.031  c0.161-0.3-0.186-0.729,0-1.015c0.185-0.287,0.277-0.269,0.524-0.508l0.524-0.508c0.612-0.593-0.654-0.867,0.524-1.016  c1.393-0.175,1.938,0.175,2.098,1.523c0.04,0.336-0.185,0.729,0,1.015c0.425,0.657,0.524,0.531,0.524,2.031  c0,0.739,0.213,1.027-0.524,1.523c-0.731,0.493-0.892-0.305-1.573,0.508c-0.221,0.262,0.247,0.776,0,1.016  c-0.358,0.347-1.389-0.191-1.573-0.508C483.805,149.108,483.479,147.584,482.354,147.291z"/>
<path fill="none" stroke="#000000" stroke-width="0.5669" stroke-miterlimit="22.9256" d="M482.354,147.291  c0.283-0.823,0.637-1.262,1.05-2.031c0.161-0.3-0.186-0.729,0-1.015c0.185-0.287,0.277-0.269,0.524-0.508l0.524-0.508  c0.612-0.593-0.654-0.867,0.524-1.016c1.393-0.175,1.938,0.175,2.098,1.523c0.04,0.336-0.185,0.729,0,1.015  c0.425,0.657,0.524,0.531,0.524,2.031c0,0.739,0.213,1.027-0.524,1.523c-0.731,0.493-0.892-0.305-1.573,0.508  c-0.221,0.262,0.247,0.776,0,1.016c-0.358,0.347-1.389-0.191-1.573-0.508C483.805,149.108,483.479,147.584,482.354,147.291z"/>
<path fill-rule="evenodd" clip-rule="evenodd" fill="#FFF200" d="M608.242,208.217c0.226-0.95-0.682-2.387,0.524-3.047  c1.795-0.982,0.568,0.465,1.573-0.508c0.289-0.279,0.666-0.275,1.049-1.016c0.188-0.365,0.268-0.691,0.524-1.016  c0.258-0.323,0.227-0.726,0.524-1.015c0.299-0.289,0.683-0.307,1.049-0.508c1.908-1.043,2.099-0.176,2.099,2.03  c0,1.743-0.063,0.302-0.524,1.016c-0.179,0.277,0.179,1.246,0,1.523c-0.461,0.714-0.524-0.728-0.524,1.016  c0,0.338,0.186,0.729,0,1.016c-0.059,0.09-1.04,1.007-1.05,1.015c-0.036,0.036-1.012,0.473-1.049,0.508  c-0.888,0.859-0.147-0.037-1.049,0.508c-0.296,0.18-0.178,0.464-0.524,0.508C609.721,210.392,608.358,210.248,608.242,208.217z"/>
<path fill="none" stroke="#000000" stroke-width="0.5669" stroke-miterlimit="22.9256" d="M608.242,208.217  c0.226-0.95-0.682-2.387,0.524-3.047c1.795-0.982,0.568,0.465,1.573-0.508c0.289-0.279,0.666-0.275,1.049-1.016  c0.188-0.365,0.268-0.691,0.524-1.016c0.258-0.323,0.227-0.726,0.524-1.015c0.299-0.289,0.683-0.307,1.049-0.508  c1.908-1.043,2.099-0.176,2.099,2.03c0,1.743-0.063,0.302-0.524,1.016c-0.179,0.277,0.179,1.246,0,1.523  c-0.461,0.714-0.524-0.728-0.524,1.016c0,0.338,0.186,0.729,0,1.016c-0.059,0.09-1.04,1.007-1.05,1.015  c-0.036,0.036-1.012,0.473-1.049,0.508c-0.888,0.859-0.147-0.037-1.049,0.508c-0.296,0.18-0.178,0.464-0.524,0.508  C609.721,210.392,608.358,210.248,608.242,208.217z"/>
<path fill="none" stroke="#000000" stroke-width="1.0001" stroke-miterlimit="22.9256" d="M500.523,44.28  c36.213,0,65.581,19.452,65.581,43.437c0,23.986-29.368,43.438-65.581,43.438c-36.215,0-65.583-19.452-65.583-43.438  C434.94,63.732,464.309,44.28,500.523,44.28z"/>
<path fill="none" stroke="#000000" stroke-width="1.0001" stroke-miterlimit="22.9256" d="M498.252,55.068  c19.596,0,35.487,9.663,35.487,21.577c0,11.915-15.892,21.577-35.487,21.577c-19.597,0-35.488-9.662-35.488-21.577  C462.764,64.731,478.655,55.068,498.252,55.068z"/>
<path fill="none" stroke="#000000" stroke-width="2.9999" stroke-miterlimit="22.9256" d="M497.399,42.009  c68.979,0,124.918,55.431,124.918,123.782s-55.938,123.783-124.918,123.783c-68.979,0-124.917-55.432-124.917-123.783  S428.421,42.009,497.399,42.009z"/>
<path fill="none" stroke="#000000" stroke-width="2.9999" stroke-miterlimit="22.9256" stroke-dasharray="6,3" d="M499.104,75.3  c0,137.027,0,210.101,0,214.274"/>
<path fill="none" stroke="#000000" stroke-width="1.0001" stroke-miterlimit="22.9256" d="M526.588,285.599  c14.691-42.586,5.91-116.212-27.481-214.064"/>
<path fill="none" stroke="#000000" stroke-width="1.0001" stroke-miterlimit="22.9256" d="M499.671,71.535  c53.374,75.431,71.732,145.556,53.942,205.263"/>
<path fill="none" stroke="#000000" stroke-width="1.0001" stroke-miterlimit="22.9256" d="M500.239,70.967  c66.706,54.015,94.47,118.461,83.076,184.822"/>
<path fill="none" stroke="#000000" stroke-width="1.0001" stroke-miterlimit="22.9256" d="M602.092,231.657  c14.126-54.698-19.919-114.318-101.001-160.689"/>
<path fill="none" stroke="#000000" stroke-width="1.0001" stroke-miterlimit="22.9256" d="M501.091,70.683  c80.163,24.887,118.77,75.428,115.833,124.35"/>
<path fill="none" stroke="#000000" stroke-width="1.0001" stroke-miterlimit="22.9256" d="M620.798,150.076  c-24.013-50.174-68.974-80.547-120.319-79.96"/>
<path fill="none" stroke="#000000" stroke-width="1.0001" stroke-miterlimit="22.9256" d="M607.271,105.669  c-30.562-33.323-67.753-46.442-106.464-37.085c5.349-5.817,24.615-10.219,44.899-8.638c6.807,0.53,13.56,2.749,20.111,4.78  c3.675,1.139,6.086,2.219,9.609,2.908"/>
<path fill="none" stroke="#000000" stroke-width="1.0001" stroke-miterlimit="22.9256" d="M533.052,46.813  c-16.856,6.039-29.891,15.66-33.665,23.711"/>
<path fill="none" stroke="#000000" stroke-width="1.0001" stroke-miterlimit="22.9256" d="M514.419,44.265  c-7.949,7.507-12.666,15.598-15.315,23.106"/>
<path fill="none" stroke="#000000" stroke-width="1.0001" stroke-miterlimit="22.9256" d="M479.305,43.084  c14.283,6,18.754,16.177,19.239,25.869"/>
<path fill="none" stroke="#000000" stroke-width="1.0001" stroke-miterlimit="22.9256" d="M456.339,48.39  c20.193-0.212,32.769,8.045,40.209,18.886"/>
<path fill="none" stroke="#000000" stroke-width="1.0001" stroke-miterlimit="22.9256" d="M496.832,68.022  c-36.985-13.013-69.168-6.826-96.547,18.56"/>
<path fill="none" stroke="#000000" stroke-width="1.0001" stroke-miterlimit="22.9256" d="M497.116,69.266  c-34.707-7.596-71.331,3.192-103.909,27.821"/>
<path fill="none" stroke="#000000" stroke-width="1.0001" stroke-miterlimit="22.9256" d="M498.325,69.622  c-23.903-4.254-52.099,6.303-82.098,24.414c-12.774,7.712-30.421,27.667-39.644,41.03"/>
<path fill="none" stroke="#000000" stroke-width="1.0001" stroke-miterlimit="22.9256" d="M495.128,71.132  c-42.599,14.392-92.767,21.284-121.057,108.577"/>
<path fill="none" stroke="#000000" stroke-width="1.0001" stroke-miterlimit="22.9256" d="M385.825,219.356  c0.389-56.606,38.434-112.505,111.863-149.524c-61.774,47.597-92.438,112.496-88.552,182.617"/>
<path fill="none" stroke="#000000" stroke-width="1.0001" stroke-miterlimit="22.9256" d="M497.874,70.399  c-53.887,72.109-72.826,143.976-58.521,205.113"/>
<path fill="none" stroke="#000000" stroke-width="1.0001" stroke-miterlimit="22.9256" d="M498.243,71.251  c-31.172,90.377-39.426,163.53-25.898,215.483"/>
<path fill="none" stroke="#000000" stroke-width="1.0001" stroke-miterlimit="22.9256" d="M460.062,48.985  c-13.316,4.542-25.296,11.757-35.94,21.644c-9.842,10.6-14.786,21.734-15.364,33.402c-0.356,13.405,5.121,25.741,16.566,37.276  c11.892,11.846,28.637,19.997,50.37,24.317c24.495,4.498,47.877,2.672,70.278-5.478c20.664-7.527,35.094-20.131,43.289-37.811  c6.858-18.839,3.073-36.297-11.49-52.508"/>
<path fill="none" stroke="#000000" stroke-width="1.0001" stroke-miterlimit="22.9256" d="M609.436,111.513  c5.789,24.316-4.275,47.03-30.196,68.14c-20.708,14.652-47.207,22.669-79.496,23.916c-31.665-0.178-58.966-8.373-81.901-24.584  c-27.301-21.778-36.609-46.317-28.191-73.618"/>
<path fill="none" stroke="#000000" stroke-width="1.0001" stroke-miterlimit="22.9256" d="M377.225,133.692  c-5.032,30.374,6.057,56.115,33.269,77.226c26.099,17.368,55.536,26.053,88.448,25.92c34.961-0.713,63.598-9.486,85.91-26.188  c22.49-15.053,34.56-36.92,36.208-65.468"/>
<path fill="none" stroke="#000000" stroke-width="1.0001" stroke-miterlimit="22.9256" d="M620.792,184.062  c-7.615,24.316-19.239,41.686-34.872,52.107c-26.899,18.305-55.67,27.39-86.578,27.39c-26.142-0.847-47.208-5.077-63.196-12.426  c-21.6-9.264-38.211-23.024-49.568-41.151c-5.879-9.353-10.154-18.349-12.826-26.988"/>
<path fill="none" stroke="#000000" stroke-width="1.0001" stroke-miterlimit="22.9256" d="M391.788,228.554  c15.81,20.263,31.531,33.49,47.163,39.681c20.844,9.62,41.285,13.896,60.926,12.826c22.224-0.044,41.151-4.319,56.783-12.692  c22.134-10.377,39.325-25.519,51.706-45.293"/>
<path fill="none" stroke="#000000" stroke-width="1.0001" stroke-miterlimit="22.9256" d="M498.805,41.745  c0,27.489,0,36.399,0,26.73"/>
<path fill="none" stroke="#000000" stroke-width="1.0001" stroke-miterlimit="22.9256" d="M497.328,68.088  c-26.809-12.822-48.955-15.542-66.439-8.159"/>
<path fill="none" stroke="#000000" stroke-width="1.0001" stroke-miterlimit="22.9256" d="M553.86,54.684  c-17.483-2.719-32.929,2.72-55.075,13.987"/>

<g font-size="16">
<switch transform="matrix(1 0 0 1 125.2925 320.7661)">
	<text systemLanguage="en" id="trsvg44"><tspan id="trsvg1">South Pole</tspan></text>
	<text systemLanguage="ja" dx="25" id="trsvg45"><tspan id="trsvg2">南極</tspan></text>
	<text systemLanguage="ml" id="trsvg46"><tspan id="trsvg3">ദക്ഷിണധ്രുവം</tspan></text>
	
<text id="trsvg47-ar" systemLanguage="ar"><tspan id="trsvg4-ar">القطب الجنوبي</tspan></text><text id="trsvg47"><tspan id="trsvg4">South Pole</tspan></text></switch>
<switch transform="matrix(1 0 0 1 125.6719 22.4194)">
	<text systemLanguage="en" id="trsvg48"><tspan id="trsvg5">North Pole</tspan></text>
	<text systemLanguage="ja" dx="25" id="trsvg49"><tspan id="trsvg6">北極</tspan></text>
	<text systemLanguage="ml" id="trsvg50"><tspan id="trsvg7">ഉത്തരധ്രുവം</tspan></text>
	
<text id="trsvg51-ar" systemLanguage="ar"><tspan id="trsvg8-ar">القطب الشمالي</tspan></text><text id="trsvg51"><tspan id="trsvg8">North Pole</tspan></text></switch>
<switch transform="matrix(1 0 0 1 290.3989 170.5078)">
	<text systemLanguage="en" id="trsvg52"><tspan id="trsvg9">Equator</tspan></text>
	<text systemLanguage="ja" id="trsvg53"><tspan id="trsvg10">赤道</tspan></text>
	<text systemLanguage="ml" id="trsvg54"><tspan id="trsvg11">ഭൂമധ്യരേഖ</tspan></text>
	
<text id="trsvg55-ar" systemLanguage="ar"><tspan id="trsvg12-ar">خط الأستواء</tspan></text><text id="trsvg55"><tspan id="trsvg12">Equator</tspan></text></switch>
<switch transform="matrix(1 0 0 1 445.625 322.6509)">
	<text systemLanguage="en" id="trsvg56"><tspan id="trsvg13">Prime Meridian</tspan></text>
	<text systemLanguage="ja" id="trsvg57"><tspan id="trsvg14">本初子午線</tspan></text>
	<text systemLanguage="ml" id="trsvg58"><tspan id="trsvg15">ഗ്രീനിച്ച് രേഖ</tspan></text>
	
<text id="trsvg59-ar" systemLanguage="ar"><tspan id="trsvg16-ar">خط الطول الأول</tspan></text><text id="trsvg59"><tspan id="trsvg16">Prime Meridian</tspan></text></switch>
</g>

<g font-size="16">
<switch transform="matrix(0.4962 -0.8682 0.8682 0.4962 14.4199 112.6182)">
	<text systemLanguage="en" id="trsvg60"><tspan id="trsvg17">Latitude</tspan></text>
	<text systemLanguage="ja" dx="13" dy="2" id="trsvg61"><tspan id="trsvg18">緯度</tspan></text>
	<text systemLanguage="ml" id="trsvg62"><tspan id="trsvg19">അക്ഷാംശം</tspan></text>
	
<text id="trsvg63-ar" systemLanguage="ar"><tspan id="trsvg20-ar">خط العرض</tspan></text><text id="trsvg63"><tspan id="trsvg20">Latitude</tspan></text></switch>
<path d="M57.508,60.361l-5.227,14.269l-0.148-0.388l-0.156-0.38l-0.164-0.371l-0.172-0.363l-0.18-0.354l-0.188-0.346l-0.196-0.337  l-0.204-0.329l-0.212-0.321l-0.22-0.312l-0.228-0.303l-0.236-0.295l-0.244-0.286l-0.252-0.278l-0.26-0.269l-0.268-0.261  l-0.276-0.252l-0.285-0.244l-0.292-0.235l-0.3-0.227l-0.309-0.218l-0.316-0.21l-0.325-0.201l-0.333-0.193l-0.34-0.185l-0.349-0.176  l-0.356-0.167l-0.365-0.159l-0.372-0.15l-0.38-0.142l-0.389-0.133l-0.396-0.125L57.508,60.361z M51.966,64.784l1.453,1.367  l-1.149,1.239l-1.14,1.267l-1.122,1.292l-1.109,1.319l-1.1,1.346l-1.083,1.372l-1.073,1.399l-1.06,1.425l-1.047,1.452l-1.033,1.478  l-1.02,1.505l-1.007,1.532l-0.994,1.558l-0.98,1.584l-0.967,1.611l-0.958,1.637l-0.941,1.665l-0.927,1.69l-0.918,1.721l-0.901,1.744  l-0.892,1.77l-0.878,1.797l-0.865,1.827l-0.847,1.85l-0.839,1.88l-0.825,1.903l-0.813,1.929l-0.798,1.959l-0.785,1.983l-0.772,2.013  l-0.759,2.04L23.072,119l-1.883-0.664l0.753-2.086l0.767-2.055l0.78-2.029l0.793-2.005l0.806-1.976l0.82-1.953l0.833-1.926  l0.846-1.896l0.864-1.874l0.873-1.843l0.886-1.82l0.899-1.794l0.917-1.767l0.926-1.737l0.943-1.714l0.956-1.688l0.966-1.661  l0.983-1.634l0.996-1.608l1.009-1.582l1.022-1.555l1.036-1.528l1.049-1.502l1.063-1.475l1.076-1.449l1.088-1.422l1.106-1.396  l1.115-1.369l1.133-1.343l1.146-1.316l1.155-1.29L51.966,64.784z"/>
</g>

<g font-size="16">
<path d="M619.013,249.169l-0.675,15.183l-0.258-0.325l-0.264-0.315l-0.269-0.305l-0.273-0.294l-0.278-0.283l-0.284-0.273  l-0.289-0.263l-0.293-0.252l-0.3-0.241l-0.304-0.231l-0.31-0.221l-0.313-0.21l-0.319-0.199l-0.324-0.188l-0.33-0.179l-0.334-0.167  l-0.34-0.157l-0.345-0.147l-0.35-0.136l-0.354-0.126l-0.36-0.115l-0.365-0.104l-0.369-0.094l-0.376-0.083l-0.38-0.073l-0.386-0.063  l-0.39-0.052l-0.396-0.042l-0.4-0.03l-0.406-0.021l-0.41-0.01l-0.416,0.001L619.013,249.169z M615.064,255.06l1.798,0.867  l-0.918,1.856l-0.953,1.819l-0.981,1.791l-1.017,1.758l-1.049,1.725l-1.081,1.692l-1.116,1.66l-1.145,1.622l-1.177,1.594  l-1.213,1.561l-1.244,1.524l-1.275,1.495l-1.309,1.463l-1.34,1.425l-1.371,1.393l-1.408,1.36l-1.436,1.33l-1.471,1.295l-1.5,1.261  l-1.535,1.225l-1.567,1.195l-1.595,1.159l-1.631,1.13l-1.663,1.093l-1.695,1.061l-1.727,1.027l-1.759,0.994l-1.79,0.958  l-1.822,0.929l-1.854,0.892l-1.886,0.863l-1.918,0.826l-0.767-1.844l1.88-0.811l1.847-0.84l1.815-0.876l1.783-0.905l1.751-0.942  l1.72-0.971l1.688-1.004l1.656-1.037l1.623-1.069l1.592-1.099l1.564-1.136l1.528-1.164l1.496-1.201l1.468-1.229l1.433-1.264  l1.404-1.292l1.368-1.328l1.341-1.361l1.309-1.394l1.277-1.424l1.244-1.456l1.213-1.492l1.182-1.522l1.153-1.555l1.121-1.591  l1.085-1.62l1.058-1.653l1.025-1.687l0.993-1.719l0.966-1.752l0.93-1.789L615.064,255.06z"/>
<switch transform="matrix(0.7857 -0.6186 0.6186 0.7857 578.2715 318.4087)">
	<text systemLanguage="en" id="trsvg64"><tspan id="trsvg21">Longitude</tspan></text>
	<text systemLanguage="ja" dx="13" dy="-2" id="trsvg65"><tspan id="trsvg22">緯度</tspan></text>
	<text systemLanguage="ml" id="trsvg66"><tspan id="trsvg23">രേഖാംശം</tspan></text>
	
<text id="trsvg67-ar" systemLanguage="ar"><tspan id="trsvg24-ar">خط الطول</tspan></text><text id="trsvg67"><tspan id="trsvg24">Longitude</tspan></text></switch>
</g>
<g font-size="13.662">
<switch transform="matrix(1 0 0 1 156.6387 38.2476)">
	
<text id="trsvg68-ar" systemLanguage="ar"><tspan id="trsvg25-ar">90°</tspan></text><text id="trsvg68"><tspan id="trsvg25">90°</tspan></text></switch>
<switch transform="matrix(1 0 0 1 92.9409 53.0352)">
	
<text id="trsvg69-ar" systemLanguage="ar"><tspan id="trsvg26-ar">60°</tspan></text><text id="trsvg69"><tspan id="trsvg26">60°</tspan></text></switch>
<switch transform="matrix(1 0 0 1 35.4985 103.0835)">
	
<text id="trsvg70-ar" systemLanguage="ar"><tspan id="trsvg27-ar">30°</tspan></text><text id="trsvg70"><tspan id="trsvg27">30°</tspan></text></switch>
<switch transform="matrix(1 0 0 1 22.624 169.0566)">
	
<text id="trsvg71-ar" systemLanguage="ar"><tspan id="trsvg28-ar">0°</tspan></text><text id="trsvg71"><tspan id="trsvg28">0°</tspan></text></switch>
<switch transform="matrix(1 0 0 1 25.2612 230.479)">
	
<text id="trsvg72-ar" systemLanguage="ar"><tspan id="trsvg29-ar">-30°</tspan></text><text id="trsvg72"><tspan id="trsvg29">-30°</tspan></text></switch>
<switch transform="matrix(1 0 0 1 66.21 278.8218)">
	
<text id="trsvg73-ar" systemLanguage="ar"><tspan id="trsvg30-ar">-60°</tspan></text><text id="trsvg73"><tspan id="trsvg30">-60°</tspan></text></switch>
<switch transform="matrix(1 0 0 1 154.1577 304.6401)">
	
<text id="trsvg74-ar" systemLanguage="ar"><tspan id="trsvg31-ar">-90°</tspan></text><text id="trsvg74"><tspan id="trsvg31">-90°</tspan></text></switch>

<switch transform="matrix(1 0 0 1 495.9609 306.4302)">
	
<text id="trsvg75-ar" systemLanguage="ar"><tspan id="trsvg32-ar">0°</tspan></text><text id="trsvg75"><tspan id="trsvg32">0°</tspan></text></switch>
<switch transform="matrix(1 0 0 1 551.6963 291.4185)">
	
<text id="trsvg76-ar" systemLanguage="ar"><tspan id="trsvg33-ar">30°</tspan></text><text id="trsvg76"><tspan id="trsvg33">30°</tspan></text></switch>
<switch transform="matrix(1 0 0 1 600.6074 250.4692)">
	
<text id="trsvg77-ar" systemLanguage="ar"><tspan id="trsvg34-ar">60°</tspan></text><text id="trsvg77"><tspan id="trsvg34">60°</tspan></text></switch>
<switch transform="matrix(1 0 0 1 627.9209 157.0425)">
	
<text id="trsvg78-ar" systemLanguage="ar"><tspan id="trsvg35-ar">90°</tspan></text><text id="trsvg78"><tspan id="trsvg35">90°</tspan></text></switch>
<switch transform="matrix(1 0 0 1 583.5859 75.8296)">
	
<text id="trsvg79-ar" systemLanguage="ar"><tspan id="trsvg36-ar">120°</tspan></text><text id="trsvg79"><tspan id="trsvg36">120°</tspan></text></switch>
<switch transform="matrix(1 0 0 1 532.2969 45.0679)">
	
<text id="trsvg80-ar" systemLanguage="ar"><tspan id="trsvg37-ar">150°</tspan></text><text id="trsvg80"><tspan id="trsvg37">150°</tspan></text></switch>
<switch transform="matrix(1 0 0 1 487.998 38.3325)">
	
<text id="trsvg81-ar" systemLanguage="ar"><tspan id="trsvg38-ar">180°</tspan></text><text id="trsvg81"><tspan id="trsvg38">180°</tspan></text></switch>
<switch transform="matrix(1 0 0 1 427.9746 46.8159)">
	
<text id="trsvg82-ar" systemLanguage="ar"><tspan id="trsvg39-ar">-150°</tspan></text><text id="trsvg82"><tspan id="trsvg39">-150°</tspan></text></switch>
<switch transform="matrix(1 0 0 1 374.0684 81.3662)">
	
<text id="trsvg83-ar" systemLanguage="ar"><tspan id="trsvg40-ar">-120°</tspan></text><text id="trsvg83"><tspan id="trsvg40">-120°</tspan></text></switch>
<switch transform="matrix(1 0 0 1 350.3516 143.0132)">
	
<text id="trsvg84-ar" systemLanguage="ar"><tspan id="trsvg41-ar">-90°</tspan></text><text id="trsvg84"><tspan id="trsvg41">-90°</tspan></text></switch>
<switch transform="matrix(1 0 0 1 366.6191 236.5522)">
	
<text id="trsvg85-ar" systemLanguage="ar"><tspan id="trsvg42-ar">-60°</tspan></text><text id="trsvg85"><tspan id="trsvg42">-60°</tspan></text></switch>
<switch transform="matrix(1 0 0 1 426.5752 292.5552)">
	
<text id="trsvg86-ar" systemLanguage="ar"><tspan id="trsvg43-ar">-30°</tspan></text><text id="trsvg86"><tspan id="trsvg43">-30°</tspan></text></switch>
</g>

<!--
<switch transform="matrix(1.0765 0 0 1 501.9297 298.2935)"><text font-size="10.0821">o</text></switch>
<switch transform="matrix(1.0765 0 0 1 508.9297 29.2935)"><text font-size="10.0821">o</text></switch>
<switch transform="matrix(1.0765 0 0 1 368.4297 133.7935)"><text font-size="10.0821">o</text></switch>
<switch transform="matrix(1.0765 0 0 1 640.4297 148.2935)"><text font-size="10.0821">o</text></switch>
<switch transform="matrix(1.0765 0 0 1 170.4297 29.2935)"><text font-size="10.0821">o</text></switch>
<switch transform="matrix(1.0765 0 0 1 28.4297 160.2935)"><text font-size="10.0821">o</text></switch>
<switch transform="matrix(1.0765 0 0 1 172.4297 296.7935)"><text font-size="10.0821">o</text></switch>
-->
</g>
</svg>
