<svg version="1.1" viewBox="0.0 0.0 960.0 720.0" fill="none" stroke="none" stroke-linecap="square" stroke-miterlimit="10" xmlns:xlink="http://www.w3.org/1999/xlink" xmlns="http://www.w3.org/2000/svg"><clipPath id="p.0"><path d="m0 0l960.0 0l0 720.0l-960.0 0l0 -720.0z" clip-rule="nonzero"/></clipPath><g clip-path="url(#p.0)"><path fill="#000000" fill-opacity="0.0" d="m0 0l960.0 0l0 720.0l-960.0 0z" fill-rule="evenodd"/><path fill="#cfe2f3" d="m38.766403 184.41995l0 0c0 -19.699615 16.54784 -35.669296 36.960632 -35.669296l0 0c9.802567 0 19.203651 3.7580109 26.135109 10.447296c6.931465 6.6892853 10.825523 15.761917 10.825523 25.222l0 0c0 19.6996 -16.547844 35.66928 -36.960632 35.66928l0 0c-20.412792 0 -36.960632 -15.969681 -36.960632 -35.66928z" fill-rule="evenodd"/><path stroke="#000000" stroke-width="1.0" stroke-linejoin="round" stroke-linecap="butt" d="m38.766403 184.41995l0 0c0 -19.699615 16.54784 -35.669296 36.960632 -35.669296l0 0c9.802567 0 19.203651 3.7580109 26.135109 10.447296c6.931465 6.6892853 10.825523 15.761917 10.825523 25.222l0 0c0 19.6996 -16.547844 35.66928 -36.960632 35.66928l0 0c-20.412792 0 -36.960632 -15.969681 -36.960632 -35.66928z" fill-rule="evenodd"/><path fill="#000000" fill-opacity="0.0" d="m75.727036 220.08923l0.6614151 125.763794" fill-rule="evenodd"/><path stroke="#000000" stroke-width="1.0" stroke-linejoin="round" stroke-linecap="butt" d="m75.727036 220.08923l0.6614151 125.763794" fill-rule="evenodd"/><path fill="#cfe2f3" d="m68.92388 222.46724l0 0c0 -1.3133392 1.0646667 -2.378006 2.378006 -2.378006l9.511711 0l0 0c0.6306839 0 1.2355423 0.25054932 1.6815033 0.6965027c0.445961 0.44596863 0.6965027 1.0508118 0.6965027 1.6815033l0 141.79518c0 1.313324 -1.0646744 2.3779907 -2.378006 2.3779907l-9.511711 0c-1.3133392 0 -2.378006 -1.0646667 -2.378006 -2.3779907z" fill-rule="evenodd"/><path stroke="#000000" stroke-width="1.0" stroke-linejoin="round" stroke-linecap="butt" d="m68.92388 222.46724l0 0c0 -1.3133392 1.0646667 -2.378006 2.378006 -2.378006l9.511711 0l0 0c0.6306839 0 1.2355423 0.25054932 1.6815033 0.6965027c0.445961 0.44596863 0.6965027 1.0508118 0.6965027 1.6815033l0 141.79518c0 1.313324 -1.0646744 2.3779907 -2.378006 2.3779907l-9.511711 0c-1.3133392 0 -2.378006 -1.0646667 -2.378006 -2.3779907z" fill-rule="evenodd"/><path fill="#ffffff" d="m141.03107 112.54846l131.06253 30.28038l-38.62503 167.18068l-131.06253 -30.280396z" fill-rule="evenodd"/><path stroke="#000000" stroke-width="1.0" stroke-linejoin="round" stroke-linecap="butt" d="m141.03107 112.54846l131.06253 30.28038l-38.62503 167.18068l-131.06253 -30.280396z" fill-rule="evenodd"/><path fill="#cfe2f3" d="m142.29393 200.89249l0 0c5.6462555 -24.438644 30.350876 -39.5999 55.17932 -33.863586c24.82846 5.7362976 40.378708 30.197937 34.732452 54.636597c-5.64624 24.43866 -30.350876 39.599915 -55.17932 33.863586c-24.82846 -5.7362976 -40.378708 -30.197937 -34.732452 -54.636597z" fill-rule="evenodd"/><path fill="#a5b4c2" d="m171.22194 193.63548c0.58815 -2.5457 3.16156 -4.1249847 5.7478485 -3.5274658c2.5863037 0.5975342 4.2061157 3.14563 3.6179657 5.6913147c-0.58815 2.5457 -3.1615448 4.125 -5.7478485 3.5274658c-2.5862885 -0.5975342 -4.2061157 -3.14563 -3.6179657 -5.6913147m28.805069 6.65506c0.58815 -2.5457 3.16156 -4.125 5.7478485 -3.5274658c2.5863037 0.5975342 4.2061157 3.1456146 3.6179657 5.6913147c-0.58815 2.5457 -3.1615448 4.1249847 -5.7478485 3.5274506c-2.5862885 -0.5975189 -4.2061157 -3.1456146 -3.6179657 -5.6912994" fill-rule="evenodd"/><path fill="#000000" fill-opacity="0.0" d="m158.42493 224.9472q20.560806 22.101212 48.675858 11.245956" fill-rule="evenodd"/><path fill="#000000" fill-opacity="0.0" d="m142.29393 200.89249l0 0c5.6462555 -24.438644 30.350876 -39.5999 55.17932 -33.863586c24.82846 5.7362976 40.378708 30.197937 34.732452 54.636597c-5.64624 24.43866 -30.350876 39.599915 -55.17932 33.863586c-24.82846 -5.7362976 -40.378708 -30.197937 -34.732452 -54.636597z" fill-rule="evenodd"/><path stroke="#0000ff" stroke-width="2.0" stroke-linejoin="round" stroke-linecap="butt" d="m171.22194 193.63548c0.58815 -2.5457 3.16156 -4.1249847 5.7478485 -3.5274658c2.5863037 0.5975342 4.2061157 3.14563 3.6179657 5.6913147c-0.58815 2.5457 -3.1615448 4.125 -5.7478485 3.5274658c-2.5862885 -0.5975342 -4.2061157 -3.14563 -3.6179657 -5.6913147m28.805069 6.65506c0.58815 -2.5457 3.16156 -4.125 5.7478485 -3.5274658c2.5863037 0.5975342 4.2061157 3.1456146 3.6179657 5.6913147c-0.58815 2.5457 -3.1615448 4.1249847 -5.7478485 3.5274506c-2.5862885 -0.5975189 -4.2061157 -3.1456146 -3.6179657 -5.6912994" fill-rule="evenodd"/><path stroke="#0000ff" stroke-width="2.0" stroke-linejoin="round" stroke-linecap="butt" d="m158.42493 224.9472q20.560806 22.101212 48.675858 11.245956" fill-rule="evenodd"/><path stroke="#0000ff" stroke-width="2.0" stroke-linejoin="round" stroke-linecap="butt" d="m142.29393 200.89249l0 0c5.6462555 -24.438644 30.350876 -39.5999 55.17932 -33.863586c24.82846 5.7362976 40.378708 30.197937 34.732452 54.636597c-5.64624 24.43866 -30.350876 39.599915 -55.17932 33.863586c-24.82846 -5.7362976 -40.378708 -30.197937 -34.732452 -54.636597z" fill-rule="evenodd"/><path fill="#000000" fill-opacity="0.0" d="m73.15748 251.02231c13.758995 6.051605 60.13163 34.580933 82.55395 36.309723c22.422302 1.7287598 43.316574 -21.614197 51.97989 -25.937012" fill-rule="evenodd"/><path stroke="#000000" stroke-width="3.0" stroke-linejoin="round" stroke-linecap="butt" d="m73.15748 251.02231c13.758995 6.051605 60.13163 34.580933 82.55395 36.309723c22.422302 1.7287598 43.316574 -21.614197 51.97989 -25.937012" fill-rule="evenodd"/><path fill="#000000" fill-opacity="0.0" d="m81.808395 406.4567l178.80315 0l0 42.015747l-178.80315 0z" fill-rule="evenodd"/></g></svg>