<svg xmlns="http://www.w3.org/2000/svg" width="1440" height="735" style="cursor: move;"><g transform="translate(-112.93042039530724,-105.1999250536449) scale(1.19747870461893)"><path class="link" marker-end="" d="M560,237.5, 740,217.5" style="stroke-width: 0.429325; stroke-opacity: 1; stroke: rgb(164, 164, 255); fill: none;"></path><path class="link" marker-end="" d="M560,237.5, 740,257.5" style="stroke-width: 1.18786; stroke-opacity: 1; stroke: rgb(3, 3, 255); fill: none;"></path><path class="link" marker-end="" d="M560,237.5, 740,297.5" style="stroke-width: 0.840738; stroke-opacity: 1; stroke: rgb(76, 76, 255); fill: none;"></path><path class="link" marker-end="" d="M560,237.5, 740,337.5" style="stroke-width: 0.122805; stroke-opacity: 1; stroke: rgb(229, 229, 255); fill: none;"></path><path class="link" marker-end="" d="M560,237.5, 740,377.5" style="stroke-width: 0.0235545; stroke-opacity: 1; stroke: rgb(255, 250, 250); fill: none;"></path><path class="link" marker-end="" d="M560,237.5, 740,417.5" style="stroke-width: 0.176815; stroke-opacity: 1; stroke: rgb(217, 217, 255); fill: none;"></path><path class="link" marker-end="" d="M560,237.5, 740,457.5" style="stroke-width: 0.17297; stroke-opacity: 1; stroke: rgb(218, 218, 255); fill: none;"></path><path class="link" marker-end="" d="M560,237.5, 740,497.5" style="stroke-width: 0.709284; stroke-opacity: 1; stroke: rgb(104, 104, 255); fill: none;"></path><path class="link" marker-end="" d="M560,237.5, 740,537.5" style="stroke-width: 0.628795; stroke-opacity: 1; stroke: rgb(121, 121, 255); fill: none;"></path><path class="link" marker-end="" d="M560,277.5, 740,217.5" style="stroke-width: 0.200548; stroke-opacity: 1; stroke: rgb(255, 212, 212); fill: none;"></path><path class="link" marker-end="" d="M560,277.5, 740,257.5" style="stroke-width: 0.190915; stroke-opacity: 1; stroke: rgb(255, 214, 214); fill: none;"></path><path class="link" marker-end="" d="M560,277.5, 740,297.5" style="stroke-width: 0.00272012; stroke-opacity: 1; stroke: rgb(254, 254, 255); fill: none;"></path><path class="link" marker-end="" d="M560,277.5, 740,337.5" style="stroke-width: 0.982096; stroke-opacity: 1; stroke: rgb(46, 46, 255); fill: none;"></path><path class="link" marker-end="" d="M560,277.5, 740,377.5" style="stroke-width: 0.574261; stroke-opacity: 1; stroke: rgb(255, 133, 133); fill: none;"></path><path class="link" marker-end="" d="M560,277.5, 740,417.5" style="stroke-width: 0.389048; stroke-opacity: 1; stroke: rgb(255, 172, 172); fill: none;"></path><path class="link" marker-end="" d="M560,277.5, 740,457.5" style="stroke-width: 0.299978; stroke-opacity: 1; stroke: rgb(255, 191, 191); fill: none;"></path><path class="link" marker-end="" d="M560,277.5, 740,497.5" style="stroke-width: 0.968698; stroke-opacity: 1; stroke: rgb(49, 49, 255); fill: none;"></path><path class="link" marker-end="" d="M560,277.5, 740,537.5" style="stroke-width: 0.456796; stroke-opacity: 1; stroke: rgb(158, 158, 255); fill: none;"></path><path class="link" marker-end="" d="M560,317.5, 740,217.5" style="stroke-width: 0.0874619; stroke-opacity: 1; stroke: rgb(236, 236, 255); fill: none;"></path><path class="link" marker-end="" d="M560,317.5, 740,257.5" style="stroke-width: 0.218022; stroke-opacity: 1; stroke: rgb(255, 209, 209); fill: none;"></path><path class="link" marker-end="" d="M560,317.5, 740,297.5" style="stroke-width: 0.2561; stroke-opacity: 1; stroke: rgb(201, 201, 255); fill: none;"></path><path class="link" marker-end="" d="M560,317.5, 740,337.5" style="stroke-width: 0.264767; stroke-opacity: 1; stroke: rgb(255, 199, 199); fill: none;"></path><path class="link" marker-end="" d="M560,317.5, 740,377.5" style="stroke-width: 0.099158; stroke-opacity: 1; stroke: rgb(234, 234, 255); fill: none;"></path><path class="link" marker-end="" d="M560,317.5, 740,417.5" style="stroke-width: 0.497937; stroke-opacity: 1; stroke: rgb(255, 149, 149); fill: none;"></path><path class="link" marker-end="" d="M560,317.5, 740,457.5" style="stroke-width: 0.121254; stroke-opacity: 1; stroke: rgb(255, 229, 229); fill: none;"></path><path class="link" marker-end="" d="M560,317.5, 740,497.5" style="stroke-width: 0.78501; stroke-opacity: 1; stroke: rgb(255, 88, 88); fill: none;"></path><path class="link" marker-end="" d="M560,317.5, 740,537.5" style="stroke-width: 1.03516; stroke-opacity: 1; stroke: rgb(35, 35, 255); fill: none;"></path><path class="link" marker-end="" d="M560,357.5, 740,217.5" style="stroke-width: 0.249374; stroke-opacity: 1; stroke: rgb(255, 202, 202); fill: none;"></path><path class="link" marker-end="" d="M560,357.5, 740,257.5" style="stroke-width: 1.13082; stroke-opacity: 1; stroke: rgb(15, 15, 255); fill: none;"></path><path class="link" marker-end="" d="M560,357.5, 740,297.5" style="stroke-width: 0.919773; stroke-opacity: 1; stroke: rgb(255, 60, 60); fill: none;"></path><path class="link" marker-end="" d="M560,357.5, 740,337.5" style="stroke-width: 1.16331; stroke-opacity: 1; stroke: rgb(8, 8, 255); fill: none;"></path><path class="link" marker-end="" d="M560,357.5, 740,377.5" style="stroke-width: 0.876109; stroke-opacity: 1; stroke: rgb(69, 69, 255); fill: none;"></path><path class="link" marker-end="" d="M560,357.5, 740,417.5" style="stroke-width: 1.14353; stroke-opacity: 1; stroke: rgb(255, 12, 12); fill: none;"></path><path class="link" marker-end="" d="M560,357.5, 740,457.5" style="stroke-width: 0.811213; stroke-opacity: 1; stroke: rgb(255, 83, 83); fill: none;"></path><path class="link" marker-end="" d="M560,357.5, 740,497.5" style="stroke-width: 0.623837; stroke-opacity: 1; stroke: rgb(255, 122, 122); fill: none;"></path><path class="link" marker-end="" d="M560,357.5, 740,537.5" style="stroke-width: 1.16207; stroke-opacity: 1; stroke: rgb(255, 8, 8); fill: none;"></path><path class="link" marker-end="" d="M560,397.5, 740,217.5" style="stroke-width: 1.16138; stroke-opacity: 1; stroke: rgb(255, 8, 8); fill: none;"></path><path class="link" marker-end="" d="M560,397.5, 740,257.5" style="stroke-width: 0.510498; stroke-opacity: 1; stroke: rgb(255, 147, 147); fill: none;"></path><path class="link" marker-end="" d="M560,397.5, 740,297.5" style="stroke-width: 0.956133; stroke-opacity: 1; stroke: rgb(52, 52, 255); fill: none;"></path><path class="link" marker-end="" d="M560,397.5, 740,337.5" style="stroke-width: 1.11455; stroke-opacity: 1; stroke: rgb(18, 18, 255); fill: none;"></path><path class="link" marker-end="" d="M560,397.5, 740,377.5" style="stroke-width: 0.0405263; stroke-opacity: 1; stroke: rgb(255, 246, 246); fill: none;"></path><path class="link" marker-end="" d="M560,397.5, 740,417.5" style="stroke-width: 0.719677; stroke-opacity: 1; stroke: rgb(102, 102, 255); fill: none;"></path><path class="link" marker-end="" d="M560,397.5, 740,457.5" style="stroke-width: 0.283772; stroke-opacity: 1; stroke: rgb(195, 195, 255); fill: none;"></path><path class="link" marker-end="" d="M560,397.5, 740,497.5" style="stroke-width: 1.00713; stroke-opacity: 1; stroke: rgb(41, 41, 255); fill: none;"></path><path class="link" marker-end="" d="M560,397.5, 740,537.5" style="stroke-width: 0.0955427; stroke-opacity: 1; stroke: rgb(255, 235, 235); fill: none;"></path><path class="link" marker-end="" d="M560,437.5, 740,217.5" style="stroke-width: 0.913888; stroke-opacity: 1; stroke: rgb(255, 61, 61); fill: none;"></path><path class="link" marker-end="" d="M560,437.5, 740,257.5" style="stroke-width: 1.19174; stroke-opacity: 1; stroke: rgb(2, 2, 255); fill: none;"></path><path class="link" marker-end="" d="M560,437.5, 740,297.5" style="stroke-width: 1.00623; stroke-opacity: 1; stroke: rgb(255, 41, 41); fill: none;"></path><path class="link" marker-end="" d="M560,437.5, 740,337.5" style="stroke-width: 0.302802; stroke-opacity: 1; stroke: rgb(191, 191, 255); fill: none;"></path><path class="link" marker-end="" d="M560,437.5, 740,377.5" style="stroke-width: 0.312259; stroke-opacity: 1; stroke: rgb(255, 189, 189); fill: none;"></path><path class="link" marker-end="" d="M560,437.5, 740,417.5" style="stroke-width: 0.205314; stroke-opacity: 1; stroke: rgb(211, 211, 255); fill: none;"></path><path class="link" marker-end="" d="M560,437.5, 740,457.5" style="stroke-width: 1.12086; stroke-opacity: 1; stroke: rgb(255, 17, 17); fill: none;"></path><path class="link" marker-end="" d="M560,437.5, 740,497.5" style="stroke-width: 0.132045; stroke-opacity: 1; stroke: rgb(227, 227, 255); fill: none;"></path><path class="link" marker-end="" d="M560,437.5, 740,537.5" style="stroke-width: 0.730016; stroke-opacity: 1; stroke: rgb(255, 100, 100); fill: none;"></path><path class="link" marker-end="" d="M560,477.5, 740,217.5" style="stroke-width: 0.0179153; stroke-opacity: 1; stroke: rgb(255, 251, 251); fill: none;"></path><path class="link" marker-end="" d="M560,477.5, 740,257.5" style="stroke-width: 1.04442; stroke-opacity: 1; stroke: rgb(255, 33, 33); fill: none;"></path><path class="link" marker-end="" d="M560,477.5, 740,297.5" style="stroke-width: 1.04893; stroke-opacity: 1; stroke: rgb(32, 32, 255); fill: none;"></path><path class="link" marker-end="" d="M560,477.5, 740,337.5" style="stroke-width: 0.872393; stroke-opacity: 1; stroke: rgb(70, 70, 255); fill: none;"></path><path class="link" marker-end="" d="M560,477.5, 740,377.5" style="stroke-width: 1.06631; stroke-opacity: 1; stroke: rgb(255, 28, 28); fill: none;"></path><path class="link" marker-end="" d="M560,477.5, 740,417.5" style="stroke-width: 1.02999; stroke-opacity: 1; stroke: rgb(255, 36, 36); fill: none;"></path><path class="link" marker-end="" d="M560,477.5, 740,457.5" style="stroke-width: 0.633495; stroke-opacity: 1; stroke: rgb(255, 120, 120); fill: none;"></path><path class="link" marker-end="" d="M560,477.5, 740,497.5" style="stroke-width: 0.865691; stroke-opacity: 1; stroke: rgb(71, 71, 255); fill: none;"></path><path class="link" marker-end="" d="M560,477.5, 740,537.5" style="stroke-width: 0.0102695; stroke-opacity: 1; stroke: rgb(255, 253, 253); fill: none;"></path><path class="link" marker-end="" d="M740,177.5, 920,357.5" style="stroke-width: 0.383958; stroke-opacity: 1; stroke: rgb(173, 173, 255); fill: none;"></path><path class="link" marker-end="" d="M740,217.5, 920,357.5" style="stroke-width: 1.15312; stroke-opacity: 1; stroke: rgb(10, 10, 255); fill: none;"></path><path class="link" marker-end="" d="M740,257.5, 920,357.5" style="stroke-width: 0.682882; stroke-opacity: 1; stroke: rgb(110, 110, 255); fill: none;"></path><path class="link" marker-end="" d="M740,297.5, 920,357.5" style="stroke-width: 0.813238; stroke-opacity: 1; stroke: rgb(255, 82, 82); fill: none;"></path><path class="link" marker-end="" d="M740,337.5, 920,357.5" style="stroke-width: 0.0256068; stroke-opacity: 1; stroke: rgb(255, 250, 250); fill: none;"></path><path class="link" marker-end="" d="M740,377.5, 920,357.5" style="stroke-width: 0.993791; stroke-opacity: 1; stroke: rgb(255, 44, 44); fill: none;"></path><path class="link" marker-end="" d="M740,417.5, 920,357.5" style="stroke-width: 0.300705; stroke-opacity: 1; stroke: rgb(191, 191, 255); fill: none;"></path><path class="link" marker-end="" d="M740,457.5, 920,357.5" style="stroke-width: 0.679136; stroke-opacity: 1; stroke: rgb(255, 111, 111); fill: none;"></path><path class="link" marker-end="" d="M740,497.5, 920,357.5" style="stroke-width: 0.3576; stroke-opacity: 1; stroke: rgb(255, 179, 179); fill: none;"></path><path class="link" marker-end="" d="M740,537.5, 920,357.5" style="stroke-width: 0.631671; stroke-opacity: 1; stroke: rgb(121, 121, 255); fill: none;"></path><path class="link" marker-end="" d="M560,237.5, 740,177.5" style="stroke-width: 0.774042; stroke-opacity: 1; stroke: rgb(255, 91, 91); fill: none;"></path><path class="link" marker-end="" d="M560,277.5, 740,177.5" style="stroke-width: 0.302608; stroke-opacity: 1; stroke: rgb(255, 191, 191); fill: none;"></path><path class="link" marker-end="" d="M560,317.5, 740,177.5" style="stroke-width: 0.545014; stroke-opacity: 1; stroke: rgb(139, 139, 255); fill: none;"></path><path class="link" marker-end="" d="M560,357.5, 740,177.5" style="stroke-width: 0.426549; stroke-opacity: 1; stroke: rgb(255, 164, 164); fill: none;"></path><path class="link" marker-end="" d="M560,397.5, 740,177.5" style="stroke-width: 0.436179; stroke-opacity: 1; stroke: rgb(255, 162, 162); fill: none;"></path><path class="link" marker-end="" d="M560,437.5, 740,177.5" style="stroke-width: 0.683771; stroke-opacity: 1; stroke: rgb(110, 110, 255); fill: none;"></path><path class="link" marker-end="" d="M560,477.5, 740,177.5" style="stroke-width: 1.03235; stroke-opacity: 1; stroke: rgb(255, 36, 36); fill: none;"></path><circle r="10" class="node" id="0_0" cx="560" cy="237.5" style="fill: rgb(255, 255, 255); stroke: rgb(51, 51, 51);"></circle><circle r="10" class="node" id="0_1" cx="560" cy="277.5" style="fill: rgb(255, 255, 255); stroke: rgb(51, 51, 51);"></circle><circle r="10" class="node" id="0_2" cx="560" cy="317.5" style="fill: rgb(255, 255, 255); stroke: rgb(51, 51, 51);"></circle><circle r="10" class="node" id="0_3" cx="560" cy="357.5" style="fill: rgb(255, 255, 255); stroke: rgb(51, 51, 51);"></circle><circle r="10" class="node" id="0_4" cx="560" cy="397.5" style="fill: rgb(255, 255, 255); stroke: rgb(51, 51, 51);"></circle><circle r="10" class="node" id="0_5" cx="560" cy="437.5" style="fill: rgb(255, 255, 255); stroke: rgb(51, 51, 51);"></circle><circle r="10" class="node" id="0_6" cx="560" cy="477.5" style="fill: rgb(255, 255, 255); stroke: rgb(51, 51, 51);"></circle><circle r="10" class="node" id="1_0" cx="740" cy="177.5" style="fill: rgb(255, 255, 255); stroke: rgb(51, 51, 51);"></circle><circle r="10" class="node" id="1_1" cx="740" cy="217.5" style="fill: rgb(255, 255, 255); stroke: rgb(51, 51, 51);"></circle><circle r="10" class="node" id="1_2" cx="740" cy="257.5" style="fill: rgb(255, 255, 255); stroke: rgb(51, 51, 51);"></circle><circle r="10" class="node" id="1_3" cx="740" cy="297.5" style="fill: rgb(255, 255, 255); stroke: rgb(51, 51, 51);"></circle><circle r="10" class="node" id="1_4" cx="740" cy="337.5" style="fill: rgb(255, 255, 255); stroke: rgb(51, 51, 51);"></circle><circle r="10" class="node" id="1_5" cx="740" cy="377.5" style="fill: rgb(255, 255, 255); stroke: rgb(51, 51, 51);"></circle><circle r="10" class="node" id="1_6" cx="740" cy="417.5" style="fill: rgb(255, 255, 255); stroke: rgb(51, 51, 51);"></circle><circle r="10" class="node" id="1_7" cx="740" cy="457.5" style="fill: rgb(255, 255, 255); stroke: rgb(51, 51, 51);"></circle><circle r="10" class="node" id="1_8" cx="740" cy="497.5" style="fill: rgb(255, 255, 255); stroke: rgb(51, 51, 51);"></circle><circle r="10" class="node" id="1_9" cx="740" cy="537.5" style="fill: rgb(255, 255, 255); stroke: rgb(51, 51, 51);"></circle><circle r="10" class="node" id="2_0" cx="920" cy="357.5" style="fill: rgb(255, 255, 255); stroke: rgb(51, 51, 51);"></circle><text class="text" dy=".35em" x="525" y="577.5" style="font-size: 12px;">Input Layer ∈ ℝ⁷</text><text class="text" dy=".35em" x="705" y="577.5" style="font-size: 12px;">Hidden Layer ∈ ℝ¹⁰</text><text class="text" dy=".35em" x="885" y="577.5" style="font-size: 12px;">Output Layer ∈ ℝ¹</text></g><defs><marker id="arrow" viewBox="0 -5 10 10" markerWidth="7" markerHeight="7" orient="auto" refX="40"><path d="M0,-5L10,0L0,5" style="stroke: rgb(80, 80, 80); fill: none;"></path></marker></defs></svg>