<svg version="1.1" viewBox="0.0 0.0 960.0 720.0" fill="none" stroke="none" stroke-linecap="square" stroke-miterlimit="10" xmlns:xlink="http://www.w3.org/1999/xlink" xmlns="http://www.w3.org/2000/svg"><clipPath id="p.0"><path d="m0 0l960.0 0l0 720.0l-960.0 0l0 -720.0z" clip-rule="nonzero"/></clipPath><g clip-path="url(#p.0)"><path fill="#000000" fill-opacity="0.0" d="m0 0l960.0 0l0 720.0l-960.0 0z" fill-rule="evenodd"/><path fill="#ffffff" d="m46.052494 190.5433l238.55905 0l0 62.81102l-238.55905 0z" fill-rule="evenodd"/><path fill="#cbcbcb" d="m284.61154 190.5433l20.937012 -20.937012l0 62.811035l-20.937012 20.936996z" fill-rule="evenodd"/><path fill="#ffffff" d="m46.052494 190.5433l20.937008 -20.937012l238.55905 0l-20.937012 20.937012z" fill-rule="evenodd"/><path fill="#000000" fill-opacity="0.0" d="m46.052494 190.5433l20.937008 -20.937012l238.55905 0l0 62.811035l-20.937012 20.936996l-238.55905 0zm0 0l238.55905 0l20.937012 -20.937012m-20.937012 20.937012l0 62.81102" fill-rule="evenodd"/><path stroke="#000000" stroke-width="1.0" stroke-linejoin="round" stroke-linecap="butt" d="m46.052494 190.5433l20.937008 -20.937012l238.55905 0l0 62.811035l-20.937012 20.936996l-238.55905 0zm0 0l238.55905 0l20.937012 -20.937012m-20.937012 20.937012l0 62.81102" fill-rule="evenodd"/><path fill="#000000" fill-opacity="0.0" d="m46.052494 195.02362l245.16534 0l0 42.015747l-245.16534 0z" fill-rule="evenodd"/><path fill="#000000" d="m144.21866 221.94362l0 -13.359375l1.765625 0l0 5.484375l6.9375 0l0 -5.484375l1.765625 0l0 13.359375l-1.765625 0l0 -6.296875l-6.9375 0l0 6.296875l-1.765625 0zm13.441696 0l0 -13.359375l9.65625 0l0 1.578125l-7.875 0l0 4.09375l7.375 0l0 1.5625l-7.375 0l0 4.546875l8.1875 0l0 1.578125l-9.96875 0zm10.943573 0l5.125 -13.359375l1.9062347 0l5.46875 13.359375l-2.015625 0l-1.546875 -4.046875l-5.5937347 0l-1.46875 4.046875l-1.875 0zm3.859375 -5.484375l4.5312347 0l-1.40625 -3.703125q-0.625 -1.6875 -0.9375 -2.765625q-0.265625 1.28125 -0.71873474 2.546875l-1.46875 3.921875zm10.052933 5.484375l0 -13.359375l4.609375 0q1.546875 0 2.375 0.203125q1.140625 0.25 1.953125 0.953125q1.0625 0.890625 1.578125 2.28125q0.53125 1.390625 0.53125 3.171875q0 1.515625 -0.359375 2.703125q-0.359375 1.171875 -0.921875 1.9375q-0.546875 0.765625 -1.203125 1.21875q-0.65625 0.4375 -1.59375 0.671875q-0.9375 0.21875 -2.140625 0.21875l-4.828125 0zm1.765625 -1.578125l2.859375 0q1.3125 0 2.0625 -0.234375q0.75 -0.25 1.203125 -0.703125q0.625 -0.625 0.96875 -1.6875q0.359375 -1.0625 0.359375 -2.578125q0 -2.09375 -0.6875 -3.21875q-0.6875 -1.125 -1.671875 -1.5q-0.703125 -0.28125 -2.28125 -0.28125l-2.8125 0l0 10.203125z" fill-rule="nonzero"/><path fill="#ffffff" d="m46.052494 301.95013l238.55905 0l0 62.811035l-238.55905 0z" fill-rule="evenodd"/><path fill="#cbcbcb" d="m284.61154 301.95013l20.937012 -20.937012l0 62.811035l-20.937012 20.937012z" fill-rule="evenodd"/><path fill="#ffffff" d="m46.052494 301.95013l20.937008 -20.937012l238.55905 0l-20.937012 20.937012z" fill-rule="evenodd"/><path fill="#000000" fill-opacity="0.0" d="m46.052494 301.95013l20.937008 -20.937012l238.55905 0l0 62.811035l-20.937012 20.937012l-238.55905 0zm0 0l238.55905 0l20.937012 -20.937012m-20.937012 20.937012l0 62.811035" fill-rule="evenodd"/><path stroke="#000000" stroke-width="1.0" stroke-linejoin="round" stroke-linecap="butt" d="m46.052494 301.95013l20.937008 -20.937012l238.55905 0l0 62.811035l-20.937012 20.937012l-238.55905 0zm0 0l238.55905 0l20.937012 -20.937012m-20.937012 20.937012l0 62.811035" fill-rule="evenodd"/><path fill="#000000" fill-opacity="0.0" d="m46.052494 306.43045l245.16534 0l0 42.015747l-245.16534 0z" fill-rule="evenodd"/><path fill="#000000" d="m133.58331 333.35043l0 -13.359375l1.765625 0l0 5.484375l6.9375 0l0 -5.484375l1.765625 0l0 13.359375l-1.765625 0l0 -6.296875l-6.9375 0l0 6.296875l-1.765625 0zm13.441696 0l0 -13.359375l9.65625 0l0 1.578125l-7.875 0l0 4.09375l7.375 0l0 1.5625l-7.375 0l0 4.546875l8.1875 0l0 1.578125l-9.96875 0zm10.943573 0l5.125 -13.359375l1.90625 0l5.46875 13.359375l-2.015625 0l-1.546875 -4.046875l-5.59375 0l-1.46875 4.046875l-1.875 0zm3.859375 -5.484375l4.53125 0l-1.40625 -3.703125q-0.625 -1.6875 -0.9375 -2.765625q-0.265625 1.28125 -0.71875 2.546875l-1.46875 3.921875zm10.052948 5.484375l0 -13.359375l4.609375 0q1.546875 0 2.375 0.203125q1.140625 0.25 1.953125 0.953125q1.0625 0.890625 1.578125 2.28125q0.53125 1.390625 0.53125 3.171875q0 1.515625 -0.359375 2.703125q-0.359375 1.171875 -0.921875 1.9375q-0.546875 0.765625 -1.203125 1.21875q-0.65625 0.4375 -1.59375 0.671875q-0.9375 0.21875 -2.140625 0.21875l-4.828125 0zm1.765625 -1.578125l2.859375 0q1.3125 0 2.0625 -0.234375q0.75 -0.25 1.203125 -0.703125q0.625 -0.625 0.96875 -1.6875q0.359375 -1.0625 0.359375 -2.578125q0 -2.09375 -0.6875 -3.21875q-0.6875 -1.125 -1.671875 -1.5q-0.703125 -0.28125 -2.28125 -0.28125l-2.8125 0l0 10.203125zm11.066696 -3.5l0 -1.859375q0.96875 -1.09375 2.53125 -1.09375q0.546875 0 1.140625 0.15625q0.609375 0.15625 1.71875 0.640625q0.625 0.25 0.9375 0.34375q0.3125 0.078125 0.640625 0.078125q0.59375 0 1.21875 -0.359375q0.640625 -0.359375 1.125 -0.890625l0 1.9375q-0.578125 0.546875 -1.1875 0.796875q-0.59375 0.234375 -1.328125 0.234375q-0.546875 0 -1.046875 -0.125q-0.5 -0.125 -1.578125 -0.609375q-1.078125 -0.484375 -1.796875 -0.484375q-0.578125 0 -1.09375 0.25q-0.515625 0.25 -1.28125 0.984375zm17.051208 5.078125l-1.640625 0l0 -10.453125q-0.59375 0.5625 -1.5625 1.140625q-0.953125 0.5625 -1.71875 0.84375l0 -1.59375q1.375 -0.640625 2.40625 -1.5625q1.03125 -0.921875 1.453125 -1.78125l1.0625 0l0 13.40625z" fill-rule="nonzero"/><path fill="#ffffff" d="m46.052494 413.35696l238.55905 0l0 62.811005l-238.55905 0z" fill-rule="evenodd"/><path fill="#cbcbcb" d="m284.61154 413.35696l20.937012 -20.937012l0 62.811005l-20.937012 20.937012z" fill-rule="evenodd"/><path fill="#ffffff" d="m46.052494 413.35696l20.937008 -20.937012l238.55905 0l-20.937012 20.937012z" fill-rule="evenodd"/><path fill="#000000" fill-opacity="0.0" d="m46.052494 413.35696l20.937008 -20.937012l238.55905 0l0 62.811005l-20.937012 20.937012l-238.55905 0zm0 0l238.55905 0l20.937012 -20.937012m-20.937012 20.937012l0 62.811005" fill-rule="evenodd"/><path stroke="#000000" stroke-width="1.0" stroke-linejoin="round" stroke-linecap="butt" d="m46.052494 413.35696l20.937008 -20.937012l238.55905 0l0 62.811005l-20.937012 20.937012l-238.55905 0zm0 0l238.55905 0l20.937012 -20.937012m-20.937012 20.937012l0 62.811005" fill-rule="evenodd"/><path fill="#000000" fill-opacity="0.0" d="m46.052494 417.83728l245.16534 0l0 42.015747l-245.16534 0z" fill-rule="evenodd"/><path fill="#000000" d="m133.58331 444.75726l0 -13.359375l1.765625 0l0 5.484375l6.9375 0l0 -5.484375l1.765625 0l0 13.359375l-1.765625 0l0 -6.296875l-6.9375 0l0 6.296875l-1.765625 0zm13.441696 0l0 -13.359375l9.65625 0l0 1.578125l-7.875 0l0 4.09375l7.375 0l0 1.5625l-7.375 0l0 4.546875l8.1875 0l0 1.578125l-9.96875 0zm10.943573 0l5.125 -13.359375l1.90625 0l5.46875 13.359375l-2.015625 0l-1.546875 -4.046875l-5.59375 0l-1.46875 4.046875l-1.875 0zm3.859375 -5.484375l4.53125 0l-1.40625 -3.703125q-0.625 -1.6875 -0.9375 -2.765625q-0.265625 1.28125 -0.71875 2.546875l-1.46875 3.921875zm10.052948 5.484375l0 -13.359375l4.609375 0q1.546875 0 2.375 0.203125q1.140625 0.25 1.953125 0.953125q1.0625 0.890625 1.578125 2.28125q0.53125 1.390625 0.53125 3.171875q0 1.515625 -0.359375 2.703125q-0.359375 1.171875 -0.921875 1.9375q-0.546875 0.765625 -1.203125 1.21875q-0.65625 0.4375 -1.59375 0.671875q-0.9375 0.21875 -2.140625 0.21875l-4.828125 0zm1.765625 -1.578125l2.859375 0q1.3125 0 2.0625 -0.234375q0.75 -0.25 1.203125 -0.703125q0.625 -0.625 0.96875 -1.6875q0.359375 -1.0625 0.359375 -2.578125q0 -2.09375 -0.6875 -3.21875q-0.6875 -1.125 -1.671875 -1.5q-0.703125 -0.28125 -2.28125 -0.28125l-2.8125 0l0 10.203125zm11.066696 -3.5l0 -1.859375q0.96875 -1.09375 2.53125 -1.09375q0.546875 0 1.140625 0.15625q0.609375 0.15625 1.71875 0.640625q0.625 0.25 0.9375 0.34375q0.3125 0.078125 0.640625 0.078125q0.59375 0 1.21875 -0.359375q0.640625 -0.359375 1.125 -0.890625l0 1.9375q-0.578125 0.546875 -1.1875 0.796875q-0.59375 0.234375 -1.328125 0.234375q-0.546875 0 -1.046875 -0.125q-0.5 -0.125 -1.578125 -0.609375q-1.078125 -0.484375 -1.796875 -0.484375q-0.578125 0 -1.09375 0.25q-0.515625 0.25 -1.28125 0.984375zm19.488708 3.5l0 1.578125l-8.828125 0q-0.015625 -0.59375 0.1875 -1.140625q0.34375 -0.90625 1.078125 -1.78125q0.75 -0.875 2.15625 -2.015625q2.171875 -1.78125 2.9375 -2.828125q0.765625 -1.046875 0.765625 -1.96875q0 -0.984375 -0.703125 -1.640625q-0.6875 -0.671875 -1.8125 -0.671875q-1.1875 0 -1.90625 0.71875q-0.703125 0.703125 -0.703125 1.953125l-1.6875 -0.171875q0.171875 -1.890625 1.296875 -2.875q1.140625 -0.984375 3.03125 -0.984375q1.921875 0 3.046875 1.0625q1.125 1.0625 1.125 2.640625q0 0.796875 -0.328125 1.578125q-0.328125 0.78125 -1.09375 1.640625q-0.75 0.84375 -2.53125 2.34375q-1.46875 1.234375 -1.890625 1.6875q-0.421875 0.4375 -0.6875 0.875l6.546875 0z" fill-rule="nonzero"/><path fill="#ffffff" d="m631.4593 190.5433l238.55908 0l0 62.81102l-238.55908 0z" fill-rule="evenodd"/><path fill="#cbcbcb" d="m870.0184 190.5433l20.937012 -20.937012l0 62.811035l-20.937012 20.936996z" fill-rule="evenodd"/><path fill="#ffffff" d="m631.4593 190.5433l20.937012 -20.937012l238.55908 0l-20.937012 20.937012z" fill-rule="evenodd"/><path fill="#000000" fill-opacity="0.0" d="m631.4593 190.5433l20.937012 -20.937012l238.55908 0l0 62.811035l-20.937012 20.936996l-238.55908 0zm0 0l238.55908 0l20.937012 -20.937012m-20.937012 20.937012l0 62.81102" fill-rule="evenodd"/><path stroke="#000000" stroke-width="1.0" stroke-linejoin="round" stroke-linecap="butt" d="m631.4593 190.5433l20.937012 -20.937012l238.55908 0l0 62.811035l-20.937012 20.936996l-238.55908 0zm0 0l238.55908 0l20.937012 -20.937012m-20.937012 20.937012l0 62.81102" fill-rule="evenodd"/><path fill="#000000" fill-opacity="0.0" d="m631.4593 195.02362l245.1654 0l0 42.015747l-245.1654 0z" fill-rule="evenodd"/><path fill="#000000" d="m718.9901 221.94362l0 -13.359375l1.765625 0l0 5.484375l6.9375 0l0 -5.484375l1.765625 0l0 13.359375l-1.765625 0l0 -6.296875l-6.9375 0l0 6.296875l-1.765625 0zm13.441711 0l0 -13.359375l9.65625 0l0 1.578125l-7.875 0l0 4.09375l7.375 0l0 1.5625l-7.375 0l0 4.546875l8.1875 0l0 1.578125l-9.96875 0zm10.9436035 0l5.125 -13.359375l1.90625 0l5.46875 13.359375l-2.015625 0l-1.546875 -4.046875l-5.59375 0l-1.46875 4.046875l-1.875 0zm3.859375 -5.484375l4.53125 0l-1.40625 -3.703125q-0.625 -1.6875 -0.9375 -2.765625q-0.265625 1.28125 -0.71875 2.546875l-1.46875 3.921875zm10.0529175 5.484375l0 -13.359375l4.609375 0q1.546875 0 2.375 0.203125q1.140625 0.25 1.953125 0.953125q1.0625 0.890625 1.578125 2.28125q0.53125 1.390625 0.53125 3.171875q0 1.515625 -0.359375 2.703125q-0.359375 1.171875 -0.921875 1.9375q-0.546875 0.765625 -1.203125 1.21875q-0.65625 0.4375 -1.59375 0.671875q-0.9375 0.21875 -2.140625 0.21875l-4.828125 0zm1.765625 -1.578125l2.859375 0q1.3125 0 2.0625 -0.234375q0.75 -0.25 1.203125 -0.703125q0.625 -0.625 0.96875 -1.6875q0.359375 -1.0625 0.359375 -2.578125q0 -2.09375 -0.6875 -3.21875q-0.6875 -1.125 -1.671875 -1.5q-0.703125 -0.28125 -2.28125 -0.28125l-2.8125 0l0 10.203125zm11.066711 -3.5l0 -1.859375q0.96875 -1.09375 2.53125 -1.09375q0.546875 0 1.140625 0.15625q0.609375 0.15625 1.71875 0.640625q0.625 0.25 0.9375 0.34375q0.3125 0.078125 0.640625 0.078125q0.59375 0 1.21875 -0.359375q0.640625 -0.359375 1.125 -0.890625l0 1.9375q-0.578125 0.546875 -1.1875 0.796875q-0.59375 0.234375 -1.328125 0.234375q-0.546875 0 -1.046875 -0.125q-0.5 -0.125 -1.578125 -0.609375q-1.078125 -0.484375 -1.796875 -0.484375q-0.578125 0 -1.09375 0.25q-0.515625 0.25 -1.28125 0.984375zm17.051208 5.078125l-1.640625 0l0 -10.453125q-0.59375 0.5625 -1.5625 1.140625q-0.953125 0.5625 -1.71875 0.84375l0 -1.59375q1.375 -0.640625 2.40625 -1.5625q1.03125 -0.921875 1.453125 -1.78125l1.0625 0l0 13.40625z" fill-rule="nonzero"/><path fill="#ffffff" d="m631.4593 301.95013l238.55908 0l0 62.811035l-238.55908 0z" fill-rule="evenodd"/><path fill="#cbcbcb" d="m870.0184 301.95013l20.937012 -20.937012l0 62.811035l-20.937012 20.937012z" fill-rule="evenodd"/><path fill="#ffffff" d="m631.4593 301.95013l20.937012 -20.937012l238.55908 0l-20.937012 20.937012z" fill-rule="evenodd"/><path fill="#000000" fill-opacity="0.0" d="m631.4593 301.95013l20.937012 -20.937012l238.55908 0l0 62.811035l-20.937012 20.937012l-238.55908 0zm0 0l238.55908 0l20.937012 -20.937012m-20.937012 20.937012l0 62.811035" fill-rule="evenodd"/><path stroke="#000000" stroke-width="1.0" stroke-linejoin="round" stroke-linecap="butt" d="m631.4593 301.95013l20.937012 -20.937012l238.55908 0l0 62.811035l-20.937012 20.937012l-238.55908 0zm0 0l238.55908 0l20.937012 -20.937012m-20.937012 20.937012l0 62.811035" fill-rule="evenodd"/><path fill="#000000" fill-opacity="0.0" d="m631.4593 306.43045l245.1654 0l0 42.015747l-245.1654 0z" fill-rule="evenodd"/><path fill="#000000" d="m718.9901 333.35043l0 -13.359375l1.765625 0l0 5.484375l6.9375 0l0 -5.484375l1.765625 0l0 13.359375l-1.765625 0l0 -6.296875l-6.9375 0l0 6.296875l-1.765625 0zm13.441711 0l0 -13.359375l9.65625 0l0 1.578125l-7.875 0l0 4.09375l7.375 0l0 1.5625l-7.375 0l0 4.546875l8.1875 0l0 1.578125l-9.96875 0zm10.9436035 0l5.125 -13.359375l1.90625 0l5.46875 13.359375l-2.015625 0l-1.546875 -4.046875l-5.59375 0l-1.46875 4.046875l-1.875 0zm3.859375 -5.484375l4.53125 0l-1.40625 -3.703125q-0.625 -1.6875 -0.9375 -2.765625q-0.265625 1.28125 -0.71875 2.546875l-1.46875 3.921875zm10.0529175 5.484375l0 -13.359375l4.609375 0q1.546875 0 2.375 0.203125q1.140625 0.25 1.953125 0.953125q1.0625 0.890625 1.578125 2.28125q0.53125 1.390625 0.53125 3.171875q0 1.515625 -0.359375 2.703125q-0.359375 1.171875 -0.921875 1.9375q-0.546875 0.765625 -1.203125 1.21875q-0.65625 0.4375 -1.59375 0.671875q-0.9375 0.21875 -2.140625 0.21875l-4.828125 0zm1.765625 -1.578125l2.859375 0q1.3125 0 2.0625 -0.234375q0.75 -0.25 1.203125 -0.703125q0.625 -0.625 0.96875 -1.6875q0.359375 -1.0625 0.359375 -2.578125q0 -2.09375 -0.6875 -3.21875q-0.6875 -1.125 -1.671875 -1.5q-0.703125 -0.28125 -2.28125 -0.28125l-2.8125 0l0 10.203125zm11.066711 -3.5l0 -1.859375q0.96875 -1.09375 2.53125 -1.09375q0.546875 0 1.140625 0.15625q0.609375 0.15625 1.71875 0.640625q0.625 0.25 0.9375 0.34375q0.3125 0.078125 0.640625 0.078125q0.59375 0 1.21875 -0.359375q0.640625 -0.359375 1.125 -0.890625l0 1.9375q-0.578125 0.546875 -1.1875 0.796875q-0.59375 0.234375 -1.328125 0.234375q-0.546875 0 -1.046875 -0.125q-0.5 -0.125 -1.578125 -0.609375q-1.078125 -0.484375 -1.796875 -0.484375q-0.578125 0 -1.09375 0.25q-0.515625 0.25 -1.28125 0.984375zm19.488708 3.5l0 1.578125l-8.828125 0q-0.015625 -0.59375 0.1875 -1.140625q0.34375 -0.90625 1.078125 -1.78125q0.75 -0.875 2.15625 -2.015625q2.171875 -1.78125 2.9375 -2.828125q0.765625 -1.046875 0.765625 -1.96875q0 -0.984375 -0.703125 -1.640625q-0.6875 -0.671875 -1.8125 -0.671875q-1.1875 0 -1.90625 0.71875q-0.703125 0.703125 -0.703125 1.953125l-1.6875 -0.171875q0.171875 -1.890625 1.296875 -2.875q1.140625 -0.984375 3.03125 -0.984375q1.921875 0 3.046875 1.0625q1.125 1.0625 1.125 2.640625q0 0.796875 -0.328125 1.578125q-0.328125 0.78125 -1.09375 1.640625q-0.75 0.84375 -2.53125 2.34375q-1.46875 1.234375 -1.890625 1.6875q-0.421875 0.4375 -0.6875 0.875l6.546875 0z" fill-rule="nonzero"/><path fill="#ffffff" d="m631.4593 413.35696l238.55908 0l0 62.811005l-238.55908 0z" fill-rule="evenodd"/><path fill="#cbcbcb" d="m870.0184 413.35696l20.937012 -20.937012l0 62.811005l-20.937012 20.937012z" fill-rule="evenodd"/><path fill="#ffffff" d="m631.4593 413.35696l20.937012 -20.937012l238.55908 0l-20.937012 20.937012z" fill-rule="evenodd"/><path fill="#000000" fill-opacity="0.0" d="m631.4593 413.35696l20.937012 -20.937012l238.55908 0l0 62.811005l-20.937012 20.937012l-238.55908 0zm0 0l238.55908 0l20.937012 -20.937012m-20.937012 20.937012l0 62.811005" fill-rule="evenodd"/><path stroke="#000000" stroke-width="1.0" stroke-linejoin="round" stroke-linecap="butt" d="m631.4593 413.35696l20.937012 -20.937012l238.55908 0l0 62.811005l-20.937012 20.937012l-238.55908 0zm0 0l238.55908 0l20.937012 -20.937012m-20.937012 20.937012l0 62.811005" fill-rule="evenodd"/><path fill="#000000" fill-opacity="0.0" d="m631.4593 417.83728l245.1654 0l0 42.015747l-245.1654 0z" fill-rule="evenodd"/><path fill="#000000" d="m718.9901 444.75726l0 -13.359375l1.765625 0l0 5.484375l6.9375 0l0 -5.484375l1.765625 0l0 13.359375l-1.765625 0l0 -6.296875l-6.9375 0l0 6.296875l-1.765625 0zm13.441711 0l0 -13.359375l9.65625 0l0 1.578125l-7.875 0l0 4.09375l7.375 0l0 1.5625l-7.375 0l0 4.546875l8.1875 0l0 1.578125l-9.96875 0zm10.9436035 0l5.125 -13.359375l1.90625 0l5.46875 13.359375l-2.015625 0l-1.546875 -4.046875l-5.59375 0l-1.46875 4.046875l-1.875 0zm3.859375 -5.484375l4.53125 0l-1.40625 -3.703125q-0.625 -1.6875 -0.9375 -2.765625q-0.265625 1.28125 -0.71875 2.546875l-1.46875 3.921875zm10.0529175 5.484375l0 -13.359375l4.609375 0q1.546875 0 2.375 0.203125q1.140625 0.25 1.953125 0.953125q1.0625 0.890625 1.578125 2.28125q0.53125 1.390625 0.53125 3.171875q0 1.515625 -0.359375 2.703125q-0.359375 1.171875 -0.921875 1.9375q-0.546875 0.765625 -1.203125 1.21875q-0.65625 0.4375 -1.59375 0.671875q-0.9375 0.21875 -2.140625 0.21875l-4.828125 0zm1.765625 -1.578125l2.859375 0q1.3125 0 2.0625 -0.234375q0.75 -0.25 1.203125 -0.703125q0.625 -0.625 0.96875 -1.6875q0.359375 -1.0625 0.359375 -2.578125q0 -2.09375 -0.6875 -3.21875q-0.6875 -1.125 -1.671875 -1.5q-0.703125 -0.28125 -2.28125 -0.28125l-2.8125 0l0 10.203125zm11.066711 -3.5l0 -1.859375q0.96875 -1.09375 2.53125 -1.09375q0.546875 0 1.140625 0.15625q0.609375 0.15625 1.71875 0.640625q0.625 0.25 0.9375 0.34375q0.3125 0.078125 0.640625 0.078125q0.59375 0 1.21875 -0.359375q0.640625 -0.359375 1.125 -0.890625l0 1.9375q-0.578125 0.546875 -1.1875 0.796875q-0.59375 0.234375 -1.328125 0.234375q-0.546875 0 -1.046875 -0.125q-0.5 -0.125 -1.578125 -0.609375q-1.078125 -0.484375 -1.796875 -0.484375q-0.578125 0 -1.09375 0.25q-0.515625 0.25 -1.28125 0.984375zm10.8793335 1.546875l1.640625 -0.21875q0.28125 1.40625 0.953125 2.015625q0.6875 0.609375 1.65625 0.609375q1.15625 0 1.953125 -0.796875q0.796875 -0.796875 0.796875 -1.984375q0 -1.125 -0.734375 -1.859375q-0.734375 -0.734375 -1.875 -0.734375q-0.46875 0 -1.15625 0.171875l0.1875 -1.4375q0.15625 0.015625 0.265625 0.015625q1.046875 0 1.875 -0.546875q0.84375 -0.546875 0.84375 -1.671875q0 -0.90625 -0.609375 -1.5q-0.609375 -0.59375 -1.578125 -0.59375q-0.953125 0 -1.59375 0.609375q-0.640625 0.59375 -0.8125 1.796875l-1.640625 -0.296875q0.296875 -1.640625 1.359375 -2.546875q1.0625 -0.90625 2.65625 -0.90625q1.09375 0 2.0 0.46875q0.921875 0.46875 1.40625 1.28125q0.5 0.8125 0.5 1.71875q0 0.859375 -0.46875 1.578125q-0.46875 0.703125 -1.375 1.125q1.1875 0.28125 1.84375 1.140625q0.65625 0.859375 0.65625 2.15625q0 1.734375 -1.28125 2.953125q-1.265625 1.21875 -3.21875 1.21875q-1.765625 0 -2.921875 -1.046875q-1.15625 -1.046875 -1.328125 -2.71875z" fill-rule="nonzero"/><path fill="#ea9999" d="m631.4593 79.13648l238.55908 0l0 62.811028l-238.55908 0z" fill-rule="evenodd"/><path fill="#bb7a7a" d="m870.0184 79.13648l20.937012 -20.937008l0 62.811024l-20.937012 20.937012z" fill-rule="evenodd"/><path fill="#eeadad" d="m631.4593 79.13648l20.937012 -20.937008l238.55908 0l-20.937012 20.937008z" fill-rule="evenodd"/><path fill="#000000" fill-opacity="0.0" d="m631.4593 79.13648l20.937012 -20.937008l238.55908 0l0 62.811024l-20.937012 20.937012l-238.55908 0zm0 0l238.55908 0l20.937012 -20.937008m-20.937012 20.937008l0 62.811028" fill-rule="evenodd"/><path stroke="#000000" stroke-width="1.0" stroke-linejoin="round" stroke-linecap="butt" d="m631.4593 79.13648l20.937012 -20.937008l238.55908 0l0 62.811024l-20.937012 20.937012l-238.55908 0zm0 0l238.55908 0l20.937012 -20.937008m-20.937012 20.937008l0 62.811028" fill-rule="evenodd"/><path fill="#ea9999" d="m631.4593 83.6168l228.56696 0l0 42.015747l-228.56696 0z" fill-rule="evenodd"/><path fill="#000000" d="m721.32623 110.5368l0 -13.359375l1.765625 0l0 5.484375l6.9375 0l0 -5.484375l1.765625 0l0 13.359375l-1.765625 0l0 -6.296875l-6.9375 0l0 6.296875l-1.765625 0zm13.441711 0l0 -13.359375l9.65625 0l0 1.578125l-7.875 0l0 4.09375l7.375 0l0 1.5625l-7.375 0l0 4.546875l8.1875 0l0 1.578125l-9.96875 0zm10.9436035 0l5.125 -13.359375l1.90625 0l5.46875 13.359375l-2.015625 0l-1.546875 -4.046875l-5.59375 0l-1.46875 4.046875l-1.875 0zm3.859375 -5.484375l4.53125 0l-1.40625 -3.703125q-0.625 -1.6875 -0.9375 -2.765625q-0.265625 1.28125 -0.71875 2.546875l-1.46875 3.921875zm10.0529175 5.484375l0 -13.359375l4.609375 0q1.546875 0 2.375 0.203125q1.140625 0.25 1.953125 0.953125q1.0625 0.890625 1.578125 2.28125q0.53125 1.390625 0.53125 3.171875q0 1.515625 -0.359375 2.703125q-0.359375 1.171875 -0.921875 1.9375q-0.546875 0.765625 -1.203125 1.21875q-0.65625 0.4375 -1.59375 0.671875q-0.9375 0.21875 -2.140625 0.21875l-4.828125 0zm1.765625 -1.578125l2.859375 0q1.3125 0 2.0625 -0.234375q0.75 -0.25 1.203125 -0.703125q0.625 -0.625 0.96875 -1.6875q0.359375 -1.0625 0.359375 -2.578125q0 -2.09375 -0.6875 -3.21875q-0.6875 -1.125 -1.671875 -1.5q-0.703125 -0.28125 -2.28125 -0.28125l-2.8125 0l0 10.203125z" fill-rule="nonzero"/><path fill="#cfe2f3" d="m403.14435 253.77953l119.07086 0l0 -17.551178l35.102356 35.10237l-35.102356 35.102356l0 -17.551178l-119.07086 0z" fill-rule="evenodd"/><path stroke="#000000" stroke-width="1.0" stroke-linejoin="round" stroke-linecap="butt" d="m403.14435 253.77953l119.07086 0l0 -17.551178l35.102356 35.10237l-35.102356 35.102356l0 -17.551178l-119.07086 0z" fill-rule="evenodd"/></g></svg>
